<?xml version="1.0" standalone="no"?>
<!DOCTYPE svg PUBLIC "-//W3C//DTD SVG 1.1//EN" "http://www.w3.org/Graphics/SVG/1.1/DTD/svg11.dtd" >
<svg xmlns="http://www.w3.org/2000/svg">
<metadata>Generated by IcoMoon</metadata>
<defs>
<font id="eleme" horiz-adv-x="1024">
<font-face units-per-em="1024" ascent="960" descent="-64" />
<missing-glyph horiz-adv-x="1024" />
<glyph unicode="&#x20;" horiz-adv-x="512" d="" />
<glyph unicode="&#xe900;" glyph-name="email" horiz-adv-x="1344" d="M1288.096 960c-409.6 0-819.2 0-1228.8 0-26.944 0-48.512-10.784-59.296-37.728v-21.568c10.784-26.944 26.944-48.512 53.888-48.512 388.032 0 797.632 0 1185.696 0v-808.416h-1131.776v700.64c0 32.352-21.568 21.568-48.512 26.944s-43.104-5.376-59.296-32.352v-765.312c5.376-16.16 21.568-26.944 37.728-32.352h1277.312c16.16 5.376 26.944 16.16 37.728 32.352v948.544c-16.16 26.944-37.728 37.728-64.672 37.728zM1067.104 771.36c-21.568 5.376-32.352-5.376-48.512-16.16-113.184-107.776-220.96-215.584-334.144-323.36-5.376-5.376-5.376-10.784-10.784-16.16-5.376 5.376-10.784 10.784-16.16 16.16-107.776 107.776-220.96 210.176-328.768 317.984 0 5.376-5.376 10.784-10.784 10.784-26.944 21.568-64.672 10.784-75.456-21.568-5.376-21.568 0-37.728 16.16-48.512 123.968-118.56 247.904-242.528 371.872-361.088 26.944-26.944 53.888-26.944 80.832 0 123.968 118.56 247.904 237.152 371.872 355.712 5.376 5.376 5.376 5.376 10.784 10.784 26.944 26.944 10.784 70.048-26.944 75.456zM253.312 135.424c21.568-16.16 48.512-16.16 70.048 0 48.512 43.104 97.024 91.616 140.128 140.128 10.784 10.784 10.784 21.568 16.16 32.352-5.376 21.568-16.16 37.728-32.352 43.104s-37.728 5.376-53.888-10.784c-48.512-48.512-97.024-91.616-145.504-140.128-10.784-16.16-10.784-48.512 5.376-64.672zM1067.104 227.040c-37.728 37.728-80.832 75.456-118.56 113.184-16.16 16.16-32.352 21.568-53.888 10.784-16.16-5.376-26.944-21.568-32.352-48.512 5.376-5.376 5.376-16.16 10.784-26.944 48.512-48.512 97.024-97.024 145.504-145.504 21.568-16.16 48.512-16.16 64.672 0s21.568 43.104 0 64.672c0 16.16-5.376 21.568-16.16 32.352z" />
<glyph unicode="&#xe901;" glyph-name="android" d="M256 170.656c0-23.456 19.2-42.656 42.656-42.656h42.656v-149.344c0-35.424 28.576-64 64-64s64 28.576 64 64v149.344h85.344v-149.344c0-35.424 28.576-64 64-64s64 28.576 64 64v149.344h42.656c23.456 0 42.656 19.2 42.656 42.656v426.656h-512v-426.656zM149.344 597.344c-35.424 0-64-28.576-64-64v-298.656c0-35.424 28.576-64 64-64s64 28.576 64 64v298.656c0 35.424-28.576 64-64 64zM874.656 597.344c-35.424 0-64-28.576-64-64v-298.656c0-35.424 28.576-64 64-64s64 28.576 64 64v298.656c0 35.424-28.576 64-64 64zM662.624 846.496l55.68 55.68c8.32 8.32 8.32 21.76 0 30.080s-21.76 8.32-30.080 0l-63.136-62.944c-34.144 16.864-72.32 26.656-113.056 26.656-40.96 0-79.36-9.824-113.696-26.88l-63.36 63.36c-8.32 8.32-21.76 8.32-30.080 0s-8.32-21.76 0-30.080l55.904-55.904c-63.36-46.72-104.736-121.824-104.736-206.496h512c0 84.896-41.6 160-105.376 206.496zM426.656 725.344h-42.656v42.656h42.656v-42.656zM640 725.344h-42.656v42.656h42.656v-42.656z" />
<glyph unicode="&#xe902;" glyph-name="angle-double-right" horiz-adv-x="576" d="M340 402.272q0-7.424-5.728-13.152l-266.272-266.272q-5.728-5.728-13.152-5.728t-13.152 5.728l-28.576 28.576q-5.728 5.728-5.728 13.152t5.728 13.152l224.576 224.576-224.576 224.576q-5.728 5.728-5.728 13.152t5.728 13.152l28.576 28.576q5.728 5.728 13.152 5.728t13.152-5.728l266.272-266.272q5.728-5.728 5.728-13.152zM559.424 402.272q0-7.424-5.728-13.152l-266.272-266.272q-5.728-5.728-13.152-5.728t-13.152 5.728l-28.576 28.576q-5.728 5.728-5.728 13.152t5.728 13.152l224.576 224.576-224.576 224.576q-5.728 5.728-5.728 13.152t5.728 13.152l28.576 28.576q5.728 5.728 13.152 5.728t13.152-5.728l266.272-266.272q5.728-5.728 5.728-13.152z" />
<glyph unicode="&#xe903;" glyph-name="apple" d="M812.32 415.872c1.504-154.912 145.888-206.368 147.552-207.136-1.312-3.488-23.136-73.44-76.192-145.664-45.888-62.368-93.376-124.48-168.32-125.728-73.696-1.312-97.376 40.672-181.632 40.672-84.224 0-110.528-39.424-180.224-41.984-72.288-2.56-127.392 67.328-173.664 129.536-94.528 127.168-166.72 359.328-69.696 516 48.096 77.824 134.144 127.104 227.584 128.416 71.040 1.184 138.144-44.608 181.504-44.608 43.488 0 124.992 55.008 210.624 46.944 35.872-1.376 136.576-13.44 201.184-101.408-5.088-3.104-120.16-65.312-118.72-195.040zM510.592 724c-8.352 58.848 22.784 120.032 58.368 158.464 39.712 43.296 106.72 75.488 162.048 77.536 7.072-59.968-18.88-120.16-57.248-163.488-38.432-43.264-101.44-76.96-163.168-72.512z" />
<glyph unicode="&#xe904;" glyph-name="arrow-down" d="M512.992 285.984q-8.992 0-11.008 2.016-6.016 0-10.016 4-16 8-20 12l-34.016 34.016q-48 44-78.016 74.016-30.016 26.016-82.016 78.016-26.016 24-44 42.016t-18.016 44q-2.016 6.016 0.992 19.008t15.008 23.008q8 10.016 18.016 12l20 6.016q6.016 0 22.016-4 18.016-12 20-14.016l200-192 200 192q18.016 18.016 42.016 18.016l20-6.016q10.016-2.016 18.016-12 18.016-15.008 18.016-42.016l-6.016-22.016q-2.016-10.016-16.992-24.992t-40.992-39.008q-52-52-110.496-106.496t-83.488-79.488l-18.016-12q-12-6.016-20.992-6.016z" />
<glyph unicode="&#xe905;" glyph-name="arrow-right" d="M328 701.984q-6.016 12-6.016 27.008t20 39.008q8 8 20 14.016 16 4 24.992 4t24.992-4q12-6.016 20-14.016l50.016-50.016q26.016-30.016 86.016-90.016 40-42.016 80-86.016l44-46.016 6.016-12q2.016-2.016 2.016-6.016t2.016-6.016v-24q0-6.016-4-10.016-4-8-6.016-10.016l-8-12-36-36-80-86.016q-28-32-86.016-90.016l-50.016-50.016q-10.016-10.016-20-12-12-6.016-32-6.016t-39.008 19.008-19.008 36 4 26.016 16 24.992l210.016 218.016-210.016 220q-12 12-14.016 22.016z" />
<glyph unicode="&#xe906;" glyph-name="arrow-up" d="M502.016 633.984h22.016q4-4 10.016-4 4-4 10.016-4l8-8q12-10.016 36-32 48-48 78.016-74.016 54.016-54.016 80-78.016l46.016-46.016q8-8 12-18.016l6.016-22.016q0-39.008-36-56.992-10.016-4.992-20-4.992t-20 6.016q-14.016 4-22.016 12l-200 192-200-192q-18.016-18.016-40-18.016t-41.504 19.488-14.496 42.496q0 6.016 4 19.008t12 20.992l46.016 46.016q28 24 82.016 78.016l112 106.016q12 12 20 12 4 4 10.016 4z" />
<glyph unicode="&#xe907;" glyph-name="cart-add" horiz-adv-x="1038" d="M763.259 192h-583.111l-18.963 142.222h237.037c-28.444 28.444-52.148 61.63-71.111 94.815h-180.148l-23.704 189.63h156.444c0 4.741 0 9.481 0 9.481 0 28.444 4.741 56.889 9.481 85.333h-175.407l-18.963 146.963c-4.741 23.704-28.444 52.148-52.148 47.407-28.444-4.741-47.407-28.444-42.667-52.148l90.074-711.111c4.741-23.704 23.704-52.148 47.407-52.148h625.778c28.444 0 47.407 18.963 47.407 47.407s-23.704 52.148-47.407 52.148zM753.778 2.37c0-34.037-27.593-61.63-61.63-61.63s-61.63 27.593-61.63 61.63c0 34.037 27.593 61.63 61.63 61.63s61.63-27.593 61.63-61.63zM237.037 2.37c0-34.037-27.593-61.63-61.63-61.63s-61.63 27.593-61.63 61.63c0 34.037 27.593 61.63 61.63 61.63s61.63-27.593 61.63-61.63zM706.37 960c-184.889 0-331.852-146.963-331.852-331.852s146.963-331.852 331.852-331.852c184.889 0 331.852 146.963 331.852 331.852s-151.704 331.852-331.852 331.852zM862.815 571.259h-94.815v-94.815c0-28.444-18.963-47.407-47.407-47.407s-47.407 18.963-47.407 47.407v94.815h-94.815c-28.444 0-47.407 18.963-47.407 47.407s18.963 47.407 47.407 47.407h94.815v94.815c0 28.444 18.963 47.407 47.407 47.407s47.407-18.963 47.407-47.407v-94.815h94.815c28.444 0 47.407-18.963 47.407-47.407s-23.704-47.407-47.407-47.407z" />
<glyph unicode="&#xe908;" glyph-name="cart" d="M846.016 4q0-8-4.992-20t-12.992-18.016q-8-10.016-18.016-12-10.016-6.016-22.016-6.016t-22.016 6.016q-10.016 2.016-18.016 12-16 12-16 36t16 44l18.016 12q12 4 22.016 4t22.016-4l18.016-12q6.016-6.016 14.016-18.016 4-16 4-24zM276 11.008q0-32.992-16-44.992-8-10.016-18.016-12-10.016-6.016-22.016-6.016t-22.016 6.016q-12 2.016-18.016 12-8 6.016-12 18.016-6.016 10.016-6.016 24.992t18.016 36.992q16 16 32.992 16t28.992-4l18.016-12q16-20 16-35.008zM770.016 640h-552l20-152h530.016q28 0 34.016 6.016 18.016 18.016 20 24t6.016 26.016l4 20q7.488 29.504-12 54.016-12 12-22.016 16.992t-28 4.992zM848 768q67.008 0 98.016-62.016 6.016-20 4-40l-30.016-206.016q-4-22.016-12-40-24.512-36.512-66.016-54.016-14.016-6.016-74.016-6.016h-520l8-100h552l12-2.016q16-12 16-26.016v-74.016q0-12-8-20l-8-6.016q-4-2.016-12-2.016h-596q-39.008 0-52 34.016-6.016 16-6.016 28-2.016 10.016-2.016 20l-78.016 700q0 20 16 28 4 2.016 10.016 2.016l58.016 4q8 0 12-2.016l8-6.016 8-8q2.016-4 2.016-12l16-150.016h644z" />
<glyph unicode="&#xe909;" glyph-name="chat-message" d="M968 441.984q0-70.016-36.992-135.008-68.512-120-240.992-179.008-88-28-178.016-28h-18.016q-10.016 0-16 2.016-12 0-18.016 2.016h-18.016q-8-6.016-52.992-32t-87.008-42.016q-40-18.016-88-30.016-38.016-12-92-16 28 12 44 28 44 36 80 92l15.008 24.992q8.992 15.008 12.992 20.992-50.016 24-88 56-44 34.016-68 68-62.016 73.504-62.016 168 0 70.016 36 134.016t98.016 108q136 100 319.008 100t324.992-100q62.016-44 98.016-108t36-134.016z" />
<glyph unicode="&#xe90a;" glyph-name="chat" d="M801.344 362.496v399.584c0 39.488-32 71.552-71.552 71.552h-626.272c-39.52 0.032-71.552-32.032-71.552-71.552v-399.584c0-39.52 32.032-71.552 71.552-71.552h119.328v-164.384l182.528 164.384h324.384c39.584 0 71.584 32.032 71.584 71.552zM920.48 676.544h-89.536c0 0 0-319.104 0-349.088s-38.912-68.544-68.896-68.544-350.24-1.76-350.24-1.76c0-39.52 32.032-63.552 71.552-63.552h137.888l179.904-163.264-0.224 163.264h119.552c39.552 0 71.552 24.032 71.552 63.552v349.824c0 39.488-32 69.568-71.552 69.568z" />
<glyph unicode="&#xe90b;" glyph-name="check" d="M384 248.736l-177.92 177.92-60.384-60.384 238.304-238.304 512 512-60.384 60.384z" />
<glyph unicode="&#xe90c;" glyph-name="circle-check" d="M715.488 638.432l-301.984-304.16-114.208 114.208-43.072-43.072 135.488-135.488c6.048-6.048 14.272-10.88 21.536-10.88s15.232 4.832 21.28 10.656l323.52 325.216-42.592 43.552zM512 951.296c-278.016 0-503.296-225.28-503.296-503.296s225.28-503.296 503.296-503.296c278.016 0 503.296 225.28 503.296 503.296s-225.28 503.296-503.296 503.296zM512-13.44c-254.304 0-461.44 206.88-461.44 461.44 0 254.304 206.88 461.44 461.44 461.44 254.304 0 461.44-206.88 461.44-461.44 0-254.304-207.136-461.44-461.44-461.44z" />
<glyph unicode="&#xe90d;" glyph-name="circle-help" d="M511.936 895.552c246.752 0 447.456-200.672 447.456-447.36 0-60.288-11.84-118.784-35.2-173.888-22.56-53.28-54.88-101.184-96.064-142.336s-89.056-73.504-142.304-96.096c-55.104-23.36-113.632-35.2-173.92-35.2s-118.816 11.84-173.92 35.2c-53.28 22.592-101.152 54.912-142.304 96.096s-73.472 89.056-96.064 142.336c-23.36 55.104-35.2 113.632-35.2 173.888 0 246.656 200.736 447.36 447.456 447.36zM511.936 960c-282.24 0-511.936-229.568-511.936-511.808 0-282.208 229.664-511.968 511.936-511.968s511.936 229.792 511.936 511.968c0 282.24-229.664 511.808-511.936 511.808v0zM546.112 165.6h-75.392v79.264h75.392v-79.264zM669.28 521.92c-8.032-16.832-25.152-37.824-51.296-62.944s-43.52-43.008-52.064-53.632c-8.544-10.624-15.040-23.328-19.424-38.080s-6.336-34.592-5.824-59.456h-68.384c0 28.992 2.336 52.192 7.008 69.568s11.648 32.512 20.992 45.472c9.312 12.928 26.144 31.968 50.528 57.12s40.032 43.392 47.008 54.784c7.008 11.392 10.496 28.352 10.496 50.912s-8.032 42.464-24.096 59.84c-16.064 17.344-39.392 26.048-69.952 26.048-68.896 0-103.36-40.928-103.36-122.784h-68.384c1.024 37.312 5.44 65.664 13.216 85.088s20.192 36.768 37.312 52.064c17.088 15.264 36.128 26.56 57.12 33.792s43.136 10.88 66.432 10.88c47.136 0 86.4-13.856 117.728-41.568s47.008-64.64 47.008-110.752c0-20.736-4.032-39.52-12.032-56.352v0z" />
<glyph unicode="&#xe90e;" glyph-name="circle" d="M512-48.48c274.208 0 496.48 222.272 496.48 496.48s-222.272 496.48-496.48 496.48c-274.208 0-496.48-222.272-496.48-496.48s222.272-496.48 496.48-496.48v0zM512-17.44c-257.056 0-465.44 208.384-465.44 465.44s208.384 465.44 465.44 465.44c257.056 0 465.44-208.384 465.44-465.44s-208.384-465.44-465.44-465.44v0z" />
<glyph unicode="&#xe90f;" glyph-name="close" d="M614.016 448l358.016-354.016-106.016-106.016-354.016 358.016-358.016-358.016-102.016 106.016 354.016 354.016-354.016 358.016 102.016 104 358.016-358.016 354.016 358.016 106.016-106.016z" />
<glyph unicode="&#xe910;" glyph-name="crown" d="M443.104 727.744c0-39.482 32.006-71.488 71.488-71.488s71.488 32.006 71.488 71.488c0 39.482-32.006 71.488-71.488 71.488s-71.488-32.006-71.488-71.488zM10.592 565.312c0 0 0 0 0 0 0-29.602 23.998-53.6 53.6-53.6s53.6 23.998 53.6 53.6c0 0 0 0 0 0 0 29.602-23.998 53.6-53.6 53.6s-53.6-23.998-53.6-53.6zM965.024 618.592c-29.6 0-53.6-24-53.6-53.568 0-23.264 14.88-42.848 35.584-50.272l-216.064-182.976-215.008 320.96-1.344 3.488-218.656-322.464-213.696 180.32 77.664-362.336h711.008l80.576 361.6c4.352-1.152 8.832-1.952 13.536-1.952 29.6 0 53.568 24 53.568 53.6s-23.968 53.6-53.568 53.6zM159.424 43.744h713.504v71.008h-712.992z" />
<glyph unicode="&#xe911;" glyph-name="dot-check" d="M512-59.648c-281.28 0-509.28 228-509.28 509.28s228 509.28 509.28 509.28 509.28-228 509.28-509.28-228-509.28-509.28-509.28zM728.064 644.64l-306.112-306.112-126.048 126.048-54.016-54.016 180.064-180.064 360.128 360.128-54.016 54.016z" />
<glyph unicode="&#xe912;" glyph-name="dot-error" d="M510.912-48.992c-274.368 0-496.768 222.4-496.768 496.768s222.4 496.768 496.768 496.768 496.768-222.4 496.768-496.768c0-274.368-222.4-496.768-496.768-496.768zM715.808 589.12l-58.56 58.56-146.368-146.368-146.368 146.368-58.528-58.56 146.368-146.368-146.368-146.368 58.528-58.56 146.368 146.368 146.368-146.368 58.56 58.56-146.368 146.368 146.368 146.368z" />
<glyph unicode="&#xe913;" glyph-name="dot-help" d="M512 932.512c-279.488 0-505.856-226.368-505.856-505.856s226.368-505.856 505.856-505.856 505.856 226.368 505.856 505.856-226.368 505.856-505.856 505.856zM562.592 72.576h-101.184v101.184h101.184v-101.184zM667.040 464.352l-45.28-46.528c-36.416-36.416-59.168-67.040-59.168-142.912h-101.184v25.28c0 55.904 22.752 106.496 59.168 143.168l62.976 63.744c18.208 18.208 29.6 43.488 29.6 71.328 0 55.904-45.28 101.184-101.184 101.184s-101.184-45.28-101.184-101.184h-101.184c0 111.808 90.56 202.336 202.336 202.336s202.336-90.56 202.336-202.336c0-44.512-17.952-84.736-47.296-114.080z" />
<glyph unicode="&#xe914;" glyph-name="dot-warning" d="M512 932.512c-279.232 0-505.856-226.368-505.856-505.856s226.624-505.856 505.856-505.856 505.856 226.368 505.856 505.856-226.624 505.856-505.856 505.856zM562.592 173.728h-101.184v101.184h101.184v-101.184zM562.592 376.096h-101.184v303.52h101.184v-303.52z" />
<glyph unicode="&#xe915;" glyph-name="dot-wraning" d="M512 932.512c-279.232 0-505.856-226.368-505.856-505.856s226.624-505.856 505.856-505.856 505.856 226.368 505.856 505.856-226.624 505.856-505.856 505.856zM562.592 173.728h-101.184v101.184h101.184v-101.184zM562.592 376.096h-101.184v303.52h101.184v-303.52z" />
<glyph unicode="&#xe916;" glyph-name="dot" d="M1024 448c0-282.784-229.216-512-512-512s-512 229.216-512 512c0 282.784 229.216 512 512 512s512-229.216 512-512z" />
<glyph unicode="&#xe917;" glyph-name="email2" d="M128 592v-284q0-18.016 10.016-42.016 19.488-47.488 60-62.016 24-10.016 44-10.016h540q48 0 80.992 32.992t32.992 80.992v298.016l-4 16-4 12q0 2.016-3.008 6.016t-4.992 8l-368-338.016-368 338.016-6.016-14.016-6.016-12q-2.016-6.016-2.016-16-2.016-6.016-2.016-14.016zM788 704h-552l276-246.016zM114.016 829.984h796q48 0 80-32 18.016-18.016 26.016-36t8-46.016v-540q0-50.016-34.016-80-28-32-80-32h-796q-52 0-80 32-14.016 14.016-24 38.016t-10.016 42.016v540q0 22.016 10.016 44.992 18.496 42.016 60 60.992 18.016 8 44 8z" />
<glyph unicode="&#xe918;" glyph-name="favor" d="M308 841.984q22.016 0 50.016-4 14.016-4 46.016-16 20-10.016 42.016-24 24-20 38.016-34.016l26.016-32 30.016 34.016q10.016 14.016 35.008 32t43.008 26.016 46.016 14.016q32 4 51.008 4t51.008-4q80-20 126.016-66.016 22.016-22.016 42.016-50.016t36-90.016q6.016-30.016 4-52 2.016-24-6.496-65.504t-35.488-78.496q-8-12-32-40l-348-350.016q-4-4-10.016-7.008t-8-4.992-10.016-2.016q-6.016-2.016-14.016-2.016t-10.016 2.016q-14.016 0-19.008 4.992t-12.992 8.992l-344 350.016q-18.016 16-32 40-16 22.016-24 44-14.016 26.016-16 50.016l-6.016 50.016q6.016 30.016 6.016 52 2.016 22.016 16 48 20 51.488 56 84 22.016 29.504 74.496 53.504 52.992 24.512 109.504 24.512z" />
<glyph unicode="&#xe919;" glyph-name="favorite" d="M512 28.672l-62.016 56q-106.016 96-154.016 142.016t-107.008 114.016-80.992 123.008-22.016 112.992q0 98.016 67.008 166.016t167.008 68q116 0 192-90.016 76 90.016 192 90.016 100 0 167.008-68t67.008-166.016q0-78.016-52-162.016t-112.992-146.016-199.008-186.016z" />
<glyph unicode="&#xe91a;" glyph-name="feedback" d="M769.504 801.76l90.496-90.496-392.224-392.224-90.496 90.496 392.224 392.224zM347.136 379.392l90.496-90.496-104.032-16.64 13.504 107.168zM829.856 862.112c16.672 16.672 43.52 16.8 60.32 0.032l30.24-30.24c16.64-16.64 16.736-43.52-0.032-60.32l-30.176-30.176-90.496 90.496 30.176 30.176zM213.12 832c-47.040 0-85.12-38.112-85.12-85.12v-597.76c0-47.040 38.112-85.12 85.12-85.12h597.76c47.040 0 85.12 38.112 85.12 85.12v505.12l-85.344-85.344v-376.608c0-23.712-19.2-42.944-42.944-42.944h-511.424c-23.712 0-42.944 19.2-42.944 42.944v511.424c0 23.712 19.2 42.944 42.944 42.944h370.112l85.344 85.344h-498.592z" />
<glyph unicode="&#xe91b;" glyph-name="figure" d="M768 605.984q14.016-11.008 14.016-32.992t-14.016-43.008q-8-10.016-16-12l-24-6.016-20 6.016q-8 2.016-20.992 15.008t-12.992 27.008q0 34.016 16 46.016l18.016 12q12 4 20 2.016 10.016 2.016 22.016-2.016zM896 648q0 12-2.016 19.008t-12 20.992q-20 16-40 16h-660q-19.008 3.008-38.016-16-8-6.016-12-19.008t-4-19.008v-422.016q0-4 2.016-8 0-6.016 2.016-8l8-16 210.016 316 216-268 162.016 160 168-160v404zM108 832h808q18.016 2.016 40.992-7.008t36.992-24.992q30.016-25.504 30.016-74.016v-556q0-22.016-8.992-43.008t-20.992-31.008q-14.016-16-36.992-24.992t-40.992-8.992h-808q-28 4-44 11.008t-32 23.008q-32 32-32 76v552q0 44 32 76t76 32z" />
<glyph unicode="&#xe91c;" glyph-name="file-text" horiz-adv-x="864" d="M838.848 678.848q8-8 16-20.576h-269.728v269.728q12.576-8 20.576-16zM566.848 585.152h310.848v-603.424q0-22.848-16-38.848t-38.848-16h-768q-22.848 0-38.848 16t-16 38.848v914.272q0 22.848 16 38.848t38.848 16h457.152v-310.848q0-22.848 16-38.848t38.848-16zM658.272 164.576v36.576q0 8-5.152 13.152t-13.152 5.152h-402.272q-8 0-13.152-5.152t-5.152-13.152v-36.576q0-8 5.152-13.152t13.152-5.152h402.272q8 0 13.152 5.152t5.152 13.152zM658.272 310.848v36.576q0 8-5.152 13.152t-13.152 5.152h-402.272q-8 0-13.152-5.152t-5.152-13.152v-36.576q0-8 5.152-13.152t13.152-5.152h402.272q8 0 13.152 5.152t5.152 13.152zM658.272 457.152v36.576q0 8-5.152 13.152t-13.152 5.152h-402.272q-8 0-13.152-5.152t-5.152-13.152v-36.576q0-8 5.152-13.152t13.152-5.152h402.272q8 0 13.152 5.152t5.152 13.152z" />
<glyph unicode="&#xe91d;" glyph-name="gift" horiz-adv-x="1056" d="M969.696 676.064c-4.64 60.512-55.84 107.040-111.712 107.040h-121.024c-18.624 102.4-107.040 176.864-209.44 176.864s-190.848-79.136-209.44-176.864h-121.024c-55.84 0-107.040-46.56-111.712-107.040l-60.512-600.448c-4.64-27.936 4.64-55.84 27.936-79.136 18.624-23.264 51.2-37.248 83.776-37.248h786.624c32.576 0 65.152 13.952 83.776 37.248s27.936 51.2 27.936 79.136l-65.152 600.448zM527.488 880.864c60.512 0 111.712-41.888 125.664-97.76h-251.36c13.952 55.84 65.152 97.76 125.664 97.76v0zM918.496 43.040h-786.624c-9.312 0-18.624 4.64-23.264 9.312s-4.64 9.312-4.64 18.624l60.512 600.448c0 18.624 18.624 32.576 32.576 32.576h660.96c13.952 0 27.936-13.952 27.936-32.576l60.512-600.448c0-4.64 0-13.952-4.64-18.624-4.64-9.312-13.952-9.312-23.264-9.312v0zM406.496 564.352c0-33.408-24.992-60.512-55.84-60.512s-55.84 27.104-55.84 60.512c0 33.408 24.992 60.512 55.84 60.512s55.84-27.104 55.84-60.512zM755.584 564.352c0-33.408-24.992-60.512-55.84-60.512s-55.84 27.104-55.84 60.512c0 33.408 24.992 60.512 55.84 60.512s55.84-27.104 55.84-60.512z" />
<glyph unicode="&#xe91e;" glyph-name="grid" d="M0 487.392h472.608v472.608h-472.608v-472.608zM78.784 881.216h315.072v-315.072h-315.072v315.072zM551.392 960v-472.608h472.608v472.608h-472.608zM945.216 566.144h-315.072v315.072h315.072v-315.072zM0-64h472.608v472.608h-472.608v-472.608zM78.784 329.856h315.072v-315.072h-315.072v315.072zM551.392-64h472.608v472.608h-472.608v-472.608zM630.144 329.856h315.072v-315.072h-315.072v315.072z" />
<glyph unicode="&#xe91f;" glyph-name="help" d="M512 64c212.064 0 384 171.936 384 384s-171.936 384-384 384c-212.064 0-384-171.936-384-384s171.936-384 384-384zM369.536 608c13.344 21.312 32.8 38.24 58.4 52.224s55.456 20.992 89.568 20.992c31.712 0 59.712-5.856 84-17.568s43.040-27.616 56.288-47.744c13.248-20.128 19.84-42.016 19.84-65.632 0-18.592-3.776-34.88-11.328-48.896s-16.512-26.080-26.912-36.256c-10.4-10.176-29.024-27.296-55.936-51.36-7.424-6.784-13.408-12.736-17.888-17.888s-7.808-9.856-10.016-14.112c-2.176-4.256-5.312-8.16-5.44-8.512-1.184-3.424-2.88-5.152-5.056-14.912-7.264-11.424-12.896-19.136-23.488-21.568-2.112-0.48-4.384-0.736-6.944-0.8-2.592-0.064-5.44-0.064-8.608-0.064-11.36 0-25.472 2.656-31.84 9.056-3.616 3.648-5.888 4.8-7.168 7.808-0.96 2.272-1.376 5.632-1.376 11.968 0 0.864 0 1.696 0.032 2.496 0.064 3.168 0.608 10.88 0.864 13.504 0.992 11.104 3.264 13.28 7.648 23.648 5.696 13.44 13.248 25.28 22.656 35.424s22.080 22.272 38.048 36.256c14.016 12.256 24.128 21.504 30.336 27.712s11.488 13.184 15.744 20.832c4.256 7.648 6.4 15.968 6.4 24.928 0 17.504-6.496 32.256-19.52 44.288s-29.792 18.048-50.368 18.048c-24.064 0-41.792-6.080-53.152-18.208s-20.992-30.016-28.864-53.664c-7.424-24.704-21.536-37.088-42.336-37.088-12.256 0-22.592 4.32-31.008 12.96s-12.64 17.984-12.64 28.064c0 20.768 6.688 42.592 20.032 63.936zM510.016 205.888c-13.344 0-24.992 4.32-34.944 12.96s-14.944 20.736-14.944 36.256c0 13.792 4.8 25.376 14.432 34.784s21.44 14.112 35.424 14.112c13.792 0 25.376-4.704 34.784-14.112s14.112-20.992 14.112-34.784c0-15.328-4.928-27.36-14.752-36.096s-21.216-13.12-34.112-13.12z" />
<glyph unicode="&#xe920;" glyph-name="history" d="M128 448h-42.656l87.872-85.344 82.816 85.344h-42.656c0 188.512 152.832 341.344 341.344 341.344s341.344-152.832 341.344-341.344c0-188.512-152.832-341.344-341.344-341.344-67.232 0-131.488 19.456-186.528 55.424-19.712 12.896-46.176 7.36-59.072-12.352s-7.36-46.176 12.352-59.072c68.8-44.992 149.28-69.344 233.216-69.344 235.648 0 426.656 191.040 426.656 426.656s-191.040 426.656-426.656 426.656c-235.648 0-426.656-191.040-426.656-426.656v0zM597.344 464.896v196.32c0 24.096-19.104 42.784-42.656 42.784-23.712 0-42.656-19.168-42.656-42.784v-213.088c0-16.736 9.216-30.848 22.72-37.92 1.952-3.648 4.48-7.040 7.552-10.144l67.168-67.168c16.608-16.608 43.776-16.768 60.448-0.096 16.768 16.768 16.608 43.712-0.096 60.448l-67.168 67.168c-1.664 1.664-3.424 3.136-5.28 4.48v0 0z" />
<glyph unicode="&#xe921;" glyph-name="line-home" horiz-adv-x="1152" d="M1104.512 394.112l-533.568 533.568-533.568-533.568 75.456-75.456 80.832 80.832v-436.544h754.528v436.544l80.832-80.832 75.456 75.456zM840.416 501.888v-431.168h-538.944v431.168h-5.376l274.848 274.848 269.472-274.848z" />
<glyph unicode="&#xe922;" glyph-name="line-message" horiz-adv-x="1088" d="M997.056 879.168h-916.224c-32.352 0-53.888-21.568-53.888-53.888v-754.528c0-32.352 21.568-53.888 53.888-53.888h916.224c32.352 0 53.888 21.568 53.888 53.888v754.528c0 32.352-21.568 53.888-53.888 53.888zM921.6 771.36l-382.656-285.632-382.656 285.632c129.344 0 635.968 0 765.312 0zM177.856 124.64l264.096 194.016-48.512 64.672-264.096-194.016c0 123.968 0 361.088 0 490.432l361.088-258.688 48.512-37.728 48.512 37.728 355.712 264.096c0-134.752 0-371.872 0-495.84l-258.688 231.744-53.888-59.296 264.096-231.744 48.512 53.888c0-21.568 0-43.104 0-53.888-80.832-5.376-592.832-5.376-765.312-5.376z" />
<glyph unicode="&#xe923;" glyph-name="line-order" horiz-adv-x="960" d="M275.36 636.64h161.696v-107.776h-161.696v107.776zM275.36 367.168h377.248v-107.776h-377.248v107.776zM652.64 906.112v0h-538.944c-32.352 0-53.888-21.568-53.888-53.888v-808.416c0-32.352 21.568-53.888 53.888-53.888h754.528c32.352 0 53.888 21.568 53.888 53.888v598.24l-269.472 264.096zM765.824 636.64h-113.184v113.184l113.184-113.184zM814.304 97.696h-646.752v700.64h377.248v-269.472h269.472v-431.168z" />
<glyph unicode="&#xe924;" glyph-name="line-profile" horiz-adv-x="1088" d="M1040.16 54.56c-26.944 161.696-134.752 296.416-274.848 366.496 43.104 53.888 70.048 118.56 70.048 188.64 0 161.696-134.752 296.416-296.416 296.416s-296.416-134.752-296.416-296.416c0-70.048 26.944-140.128 70.048-188.64-140.128-70.048-247.904-204.8-274.848-366.496 0-5.376 0-5.376 0-10.784 0-10.784 5.376-26.944 10.784-32.352 10.784-16.16 21.568-21.568 37.728-21.568h900.032c16.16 0 32.352 5.376 43.104 21.568 10.784 10.784 10.784 21.568 10.784 32.352 5.376 5.376 5.376 5.376 0 10.784zM538.944 798.304c102.4 0 188.64-86.24 188.64-188.64s-86.24-188.64-188.64-188.64c-102.4 0-188.64 86.24-188.64 188.64s86.24 188.64 188.64 188.64zM156.288 97.696c43.104 118.56 134.752 204.8 247.904 247.904 43.104-21.568 86.24-32.352 134.752-32.352s91.616 10.784 129.344 32.352c113.184-37.728 210.176-129.344 247.904-247.904-107.776 0-646.752 0-759.904 0z" />
<glyph unicode="&#xe925;" glyph-name="list" d="M0 487.392h472.608v472.608h-472.608v-472.608zM78.784 881.216h315.072v-315.072h-315.072v315.072zM551.392 881.216h472.608v-78.784h-472.608v78.784zM551.392 644.928h472.608v-78.784h-472.608v78.784zM551.392 329.856h472.608v-78.784h-472.608v78.784zM551.392 93.536h472.608v-78.784h-472.608v78.784zM0-64h472.608v472.608h-472.608v-472.608zM78.784 329.856h315.072v-315.072h-315.072v315.072z" />
<glyph unicode="&#xe926;" glyph-name="location-line" horiz-adv-x="736" d="M557.888 176.096c56.512 81.216 109.472 162.432 148.288 254.24 17.664 42.368 35.296 88.288 35.296 134.176 3.52 77.696-17.664 151.84-60.032 218.912-84.736 130.656-240.096 197.728-388.416 162.432-134.176-31.776-225.984-116.512-271.904-247.168-28.256-81.216-31.776-158.912 3.52-240.096 17.664-45.888 38.848-88.288 63.552-130.656 63.552-112.992 137.696-215.392 218.912-317.792 3.52-3.52 7.072-7.072 10.592-14.112h-14.112c-45.888 0-88.288 0-134.176 0-17.664 0-28.256-10.592-31.776-24.704s3.52-31.776 17.664-38.848c3.52 0 3.52-3.52 7.072-3.52h420.192c0 0 0 0 0 0 17.664 10.592 28.256 21.184 24.704 38.848s-17.664 28.256-38.848 28.256c-42.368 0-84.736 0-127.104 0-3.52 0-7.072 0-14.112 0 3.52 3.52 7.072 7.072 7.072 10.592 42.368 63.552 84.736 116.512 123.584 169.504zM381.344 48.992c-3.52-3.52-7.072-7.072-10.592-10.592-14.112 14.112-24.704 28.256-35.296 42.368-70.624 88.288-137.696 180.096-194.208 278.944-24.704 42.368-45.888 88.288-63.552 137.696-24.704 70.624-14.112 141.248 17.664 208.32 45.888 98.88 120.064 162.432 225.984 180.096 130.656 21.184 233.056-31.776 303.68-141.248 35.296-52.96 49.44-109.472 49.44-173.024 0-42.368-14.112-84.736-31.776-123.584-35.296-84.736-84.736-162.432-137.696-233.056-38.848-56.512-81.216-109.472-123.584-165.952zM370.752 755.2c-95.328 0-169.504-77.696-169.504-169.504 0-95.328 74.144-169.504 169.504-169.504 91.808 0 169.504 77.696 169.504 169.504s-77.696 169.504-169.504 169.504zM370.752 483.296c-56.512 0-102.4 45.888-98.88 105.92 0 52.96 45.888 98.88 98.88 98.88 56.512 0 98.88-45.888 98.88-102.4 0-60.032-45.888-105.92-98.88-102.4z" />
<glyph unicode="&#xe927;" glyph-name="location-line2" horiz-adv-x="1344" d="M177.856 448c5.376 10.784 10.784 16.16 21.568 26.944 156.288 156.288 312.576 312.576 468.896 468.896 21.568 21.568 43.104 21.568 64.672 0 156.288-156.288 312.576-312.576 468.896-468.896 5.376-5.376 16.16-16.16 21.568-26.944 0-5.376 0-10.784 0-16.16-21.568-32.352-43.104-37.728-70.048-10.784-21.568 21.568-48.512 48.512-70.048 70.048 0 0-5.376 5.376-10.784 5.376 0-5.376 0-10.784 0-16.16 0-167.072 0-334.144 0-501.216 0-21.568-5.376-37.728-26.944-48.512-231.744 0-458.112 0-689.856 0-21.568 10.784-26.944 26.944-26.944 48.512 0 134.752 0 264.096 0 398.816 0 26.944 26.944 48.512 48.512 37.728 16.16-5.376 21.568-16.16 21.568-37.728 0-26.944 0-59.296 0-86.24 0-91.616 0-177.856 0-269.472 0-5.376 0-10.784 0-16.16 199.424 0 398.816 0 598.24 0 0 5.376 0 5.376 0 10.784 0 177.856 0 361.088 0 538.944 0 5.376 0 10.784-5.376 16.16-97.024 97.024-194.016 194.016-291.040 291.040 0 0 0 0-5.376 5.376-5.376-5.376-5.376-5.376-10.784-10.784-145.504-145.504-296.416-296.416-441.952-441.952-26.944-26.944-53.888-21.568-64.672 10.784 0 0 0 0 0 0 0 5.376 0 10.784 0 21.568z" />
<glyph unicode="&#xe928;" glyph-name="location" d="M512 756q-80 0-140-60t-60-146.016 60.992-147.008q59.008-59.008 140-59.008t140.992 60q26.016 28 42.016 68t16 79.008-16 79.008q-32 79.488-106.016 110.016-38.016 16-78.016 16zM176 549.984q0 70.016 27.008 134.016t75.008 112.992q96.992 99.008 234.496 99.008t237.504-100q98.016-102.496 98.016-246.016 0-70.016-52-170.016-60-110.016-111.008-182.016t-120.992-160l-52-64-52 64q-148 185.504-230.016 342.016-54.016 100-54.016 170.016z" />
<glyph unicode="&#xe929;" glyph-name="lock-24" d="M853.408-64.032h-682.144c-47.104 0-85.248 38.24-85.248 85.376v426.912c0 47.136 38.176 85.408 85.248 85.408h42.624v128.032c0 165.024 133.632 298.848 298.464 298.848s298.464-133.792 298.464-298.848v-128.032h42.624c47.104 0 85.248-38.24 85.248-85.408v-426.912c0-47.104-38.176-85.376-85.248-85.376zM682.88 661.728c0 94.304-76.384 170.752-170.528 170.752s-170.528-76.448-170.528-170.752v-128.032h341.088v128.032z" />
<glyph unicode="&#xe92a;" glyph-name="logo-map" horiz-adv-x="9472" d="M512 930.016v0h1765.76l22.464 29.984h-1788.256c-282.208 0-512-229.792-512-512h29.984c0 267.232 214.784 482.016 482.016 482.016zM2782.272 448c0-267.232-217.28-482.016-482.016-482.016v0h-1758.272l-22.464-29.984h1780.768c282.24 0 512 229.792 512 512h-29.984zM2300.256 872.576h-1788.256c-234.784 0-424.576-189.824-424.576-424.576s189.824-424.576 424.576-424.576h1788.256c234.784 0 424.576 189.824 424.576 424.576s-189.824 424.576-424.576 424.576zM864.16 717.728h82.432v-22.464h104.896v-117.376h-69.92v57.44h-34.976v-59.936h-82.432v142.368zM514.496 165.76c-154.848 0-282.208 127.36-282.208 282.24s127.392 282.208 282.208 282.208c154.848 0 282.208-127.392 282.208-282.208s-127.36-282.208-282.208-282.208zM1028.992 178.272h-164.832v352.16h94.912v-294.72h69.92v-57.44zM1431.104 552.896h-94.912v-187.328h22.464v142.368h72.416v-214.784h-94.912v-57.44h94.912v-57.44h-189.824v114.88h-24.992v72.416h24.992v187.328h-47.456v-92.416h22.464v-57.44h-22.464v-222.272h-117.376v54.944h24.992v164.832h-69.92v59.936h69.92v94.912h-34.976v59.936h34.976v44.96h-34.976v57.44h152.352v-59.936h-22.464v-44.96h47.456v104.896h94.912v-104.896h94.912v-59.936zM1735.808 178.272h-247.264v57.44h152.352v317.184h72.416l82.432 104.896h-437.088v59.936h551.968v-59.936l-174.816-224.768v-254.752zM2025.536 717.728h117.376l-164.832-212.288h-117.376l164.832 212.288zM2437.632 178.272h-564.448v57.44h44.96l377.12 482.016h117.376l-377.12-482.016h307.2v127.36h94.912v-184.832zM626.88 323.136c-9.984 14.976-29.984 19.968-44.96 12.48 0 0 0 0 0 0-62.432-34.976-142.368-14.976-179.84 49.952-37.472 62.432-14.976 144.864 47.456 179.84 52.448 29.984 119.872 19.968 159.84-22.464l-124.864-72.416c-14.976-9.984-19.968-29.984-12.48-44.96 9.984-14.976 27.488-19.968 44.96-12.48v0l182.336 104.896c-4.992 9.984-7.488 19.968-14.976 29.984-54.944 94.912-174.816 127.36-269.728 72.416s-127.392-174.816-72.416-269.728c54.944-94.912 174.816-127.36 267.232-72.416 0 0 0 0 0 0v0c0 0 0 0 0 0 9.984 4.992 17.472 12.48 27.488 17.472l-9.984 27.488zM704.32 420.512l-17.472 27.488-54.944-32.48 32.48-54.944 27.488 14.976c14.976 9.984 19.968 29.984 12.48 44.96zM5684.448 370.592c4.992 9.984 9.984 14.976 12.48 12.48s2.496-7.488-2.496-19.968c-14.976-37.472-12.48-34.976-17.472-64.928s-9.984-54.944-9.984-72.416c0-27.488-9.984-29.984-29.984-7.488s-29.984 52.448-29.984 92.416c0 4.992 0 9.984 0 19.968 0 7.488 2.496 17.472 2.496 27.488s2.496 19.968 2.496 27.488 2.496 17.472 2.496 24.96 0 12.48 0 17.472c0 4.992 0 9.984-2.496 12.48 0 4.992-2.496 7.488-4.992 12.48s-4.992 7.488-7.488 12.48c-2.496 4.992-4.992 7.488-7.488 9.984s-2.496 4.992-4.992 9.984c-2.496 2.496-2.496 7.488-4.992 9.984s-2.496 7.488-4.992 12.48c-2.496 7.488-4.992 17.472-4.992 24.96 0 9.984 0 17.472 0 27.488s2.496 14.976 4.992 14.976c2.496 0 2.496-4.992 2.496-17.472 0-2.496 0-7.488 0-9.984 0-4.992 2.496-9.984 2.496-12.48 2.496-4.992 2.496-9.984 4.992-12.48 2.496-4.992 4.992-7.488 7.488-9.984 14.976-17.472 24.96-34.976 32.48-49.952 4.992-17.472 4.992-37.472 0-57.44-4.992-14.976-4.992-29.984-7.488-47.456s0-29.984 0-44.96c2.496-14.976 2.496-27.488 7.488-37.472 2.496-12.48 7.488-19.968 9.984-27.488 4.992 27.488 12.48 52.448 19.968 77.408 14.976 22.464 12.48 14.976 27.488 44.96zM5651.968 552.896c-9.984 0-14.976 0-17.472 0-2.496 2.496 2.496 4.992 12.48 7.488 14.976 4.992 27.488 9.984 34.976 14.976 9.984 4.992 14.976 7.488 19.968 12.48 4.992 2.496 7.488 7.488 7.488 9.984s-2.496 7.488-4.992 9.984-12.48 14.976-19.968 22.464c-7.488 7.488-17.472 14.976-32.48 27.488-7.488 4.992-9.984 9.984-7.488 9.984 2.496 2.496 7.488 0 12.48-4.992 14.976-9.984 24.96-14.976 34.976-22.464s19.968-14.976 27.488-19.968 24.96-22.464 27.488-29.984c0-7.488-2.496-12.48-9.984-17.472-7.488-2.496-14.976-4.992-22.464-9.984-7.488-2.496-14.976-4.992-22.464-7.488s-14.976-4.992-22.464-4.992c-7.488 2.496-12.48 2.496-17.472 2.496zM6071.584 535.424c7.488-4.992 9.984-9.984 7.488-14.976s-9.984-4.992-22.464-4.992c-4.992 0-12.48 0-22.464 0s-19.968-2.496-32.48-4.992c-12.48-2.496-24.96-4.992-37.472-7.488s-27.488-7.488-39.968-9.984c0-12.48 0-22.464 0-32.48s0-17.472-2.496-27.488c0-7.488-2.496-17.472-2.496-24.96-2.496-7.488-2.496-17.472-4.992-27.488 12.48 2.496 24.96 4.992 34.976 9.984 9.984 2.496 22.464 7.488 29.984 9.984s14.976 2.496 22.464 0c7.488-2.496 14.976-4.992 19.968-9.984 7.488-4.992 9.984-9.984 12.48-17.472 2.496-4.992 0-14.976-4.992-24.96-2.496-4.992-4.992-12.48-9.984-19.968-2.496-7.488-7.488-17.472-12.48-24.96-4.992-9.984-9.984-19.968-14.976-29.984s-9.984-19.968-14.976-27.488c9.984 0 7.488 0 14.976 0s7.488-2.496 9.984-4.992 2.496-9.984 2.496-12.48c-2.496-2.496-2.496-2.496-12.48-2.496s-9.984 0-17.472 0-14.976 0-22.464 0c-7.488 0-17.472-2.496-24.96-2.496-9.984-2.496-19.968-2.496-32.48-4.992-9.984-2.496-19.968-2.496-27.488-2.496 4.992-9.984 2.496-17.472-2.496-17.472s-12.48 4.992-22.464 17.472c-7.488 9.984-14.976 22.464-19.968 34.976s-9.984 27.488-14.976 42.464c-4.992 14.976-7.488 29.984-9.984 44.96s-2.496 12.48-2.496 24.96c0 7.488 0 12.48 2.496 14.976s2.496 4.992 4.992 4.992c2.496 0 2.496 0 4.992-2.496s2.496-4.992 2.496-9.984c0-2.496 2.496-7.488 2.496-9.984 2.496-4.992 0-2.496 2.496-7.488 9.984 4.992 24.96 12.48 42.464 17.472 22.464 4.992 27.488 19.968 29.984 37.472s4.992 29.984 4.992 42.464c0 12.48 2.496 24.96 2.496 39.968-24.96-7.488-47.456-14.976-69.92-24.96-22.464-7.488-39.968-17.472-52.448-24.992s-22.464-9.984-29.984-12.48c-7.488 0-14.976 2.496-22.464 7.488-4.992 4.992-7.488 7.488-7.488 12.48s4.992 4.992 14.976 4.992c12.48-2.496 24.96 2.496 42.464 9.984 4.992 2.496 12.48 4.992 19.968 9.984 9.984 4.992 19.968 7.488 29.984 12.48s22.464 7.488 37.472 12.48c12.48 4.992 27.488 9.984 39.968 12.48v24.96c0 9.984-2.496 42.464-2.496 47.456-2.496 4.992-2.496 12.48-7.488 14.976-2.496 4.992-7.488 7.488-12.48 9.984s-9.984 4.992-17.472 7.488c-14.976-4.992-29.984-9.984-44.96-14.976s-27.488-7.488-39.968-9.984c-9.984-2.496-14.976-2.496-14.976 0s4.992 4.992 12.48 9.984c9.984 2.496 19.968 7.488 32.48 9.984 9.984 4.992 22.464 7.488 32.48 12.48 27.488 12.48 44.96 19.968 62.432 27.488s32.48 17.472 47.456 24.96c7.488 2.496 14.976 9.984 14.976 14.976 0 19.968-4.992 34.976 24.96-4.992 7.488-7.488 9.984-14.976 9.984-17.472s-4.992-4.992-9.984-4.992c-7.488 0-17.472-2.496-27.488-4.992s-17.472-4.992-24.96-7.488c-7.488-2.496-14.976-7.488-24.96-9.984-9.984-4.992-19.968-7.488-29.984-12.48 12.48-2.496 22.464-7.488 29.984-14.976 7.488-4.992 9.984-12.48 9.984-22.464v-72.416c22.464 7.488 42.464 12.48 62.432 17.472s34.976 7.488 44.96 7.488c9.984 0 17.472 0 22.464 0 12.48 0 17.472-2.496 24.96-7.488zM5996.64 345.6c4.992 14.976 4.992 24.96 0 27.488s-14.976 2.496-29.984 0c-29.984-7.488-59.936-14.976-84.928-22.464s-44.96-12.48-59.936-17.472c4.992-17.472 9.984-34.976 14.976-52.448s12.48-32.48 19.968-47.456c4.992-2.496 9.984-2.496 12.48-2.496 4.992 0 12.48 0 19.968 2.496 9.984 2.496 17.472 2.496 27.488 4.992 7.488 2.496 19.968 2.496 32.48 4.992 9.984 19.968 17.472 37.472 27.488 54.944 7.488 14.976 14.976 29.984 19.968 47.456zM8351.84 637.824c4.992-4.992 2.496-9.984-7.488-12.48s-24.992-2.496-44.96 0c-12.48 2.496-19.968 0-47.456 0-27.488-2.496-62.432-4.992-99.904-7.488 2.496 0 4.992-2.496 7.488-2.496s4.992-2.496 9.984-2.496c14.976-4.992 24.992-12.48 29.984-22.464 7.488-9.984 7.488-22.464 7.488-32.48 0-4.992-2.496-14.976-2.496-24.96s-2.496-22.464-2.496-34.976c0-4.992 0-12.48 0-22.464 0-12.48 0-24.96 0-39.968s0-32.48 0-49.952c0-17.472 0-34.976 0-49.952s0-29.984 0-39.968c0-12.48 0-17.472 0-22.464 0-12.48 0-22.464 0-32.48s-2.496-17.472-4.992-24.96c-2.496-12.48-7.488-17.472-12.48-17.472s-14.976 2.496-27.488 12.48c-9.984 7.488-22.464 14.976-34.976 22.464s-22.464 12.48-29.984 17.472c-4.992 2.496-4.992 4.992-4.992 7.488s4.992 2.496 9.984 0c9.984-4.992 17.472-7.488 24.96-9.984s12.48-4.992 17.472-7.488c12.48-4.992 22.464-7.488 27.488-7.488s7.488 7.488 9.984 17.472c0 4.992 2.496 12.48 2.496 29.984 0 14.976 0 34.976 2.496 57.44 0 22.464 0 44.96 0 69.92s0 47.456 0 69.92c0 22.464 0 39.968 0 57.44 0 14.976 0 24.96-2.496 29.984-2.496 9.984-4.992 19.968-9.984 27.488s-12.48 12.48-24.96 17.472c-4.992 2.496-9.984 4.992-12.48 7.488s-7.488 4.992-9.984 4.992c-24.96-2.496-47.456-4.992-67.424-7.488-22.464-2.496-42.464-7.488-59.936-9.984s-19.968-2.496-34.976-7.488c-12.48-2.496-27.488-7.488-34.976-9.984-22.464-7.488-34.976-7.488-49.952-7.488-14.976 2.496-27.488 4.992-34.976 12.48-4.992 4.992-2.496 9.984 2.496 9.984 7.488 0 14.976-2.496 24.96 0s19.968 2.496 27.488 4.992c7.488 2.496 59.936 9.984 72.416 9.984 22.464 2.496 29.984 4.992 62.432 7.488 29.984 4.992 62.432 7.488 94.912 12.48s64.928 7.488 94.912 12.48c29.984 4.992 39.968 7.488 59.936 9.984 17.472 2.496 29.984 2.496 42.464-2.496 14.976-7.488 24.992-12.48 29.984-19.968zM8109.568 430.528c2.496-4.992 2.496-9.984 2.496-12.48-2.496-2.496-4.992-4.992-7.488-2.496-7.488 2.496-17.472 2.496-24.96 0-7.488 0-14.976-2.496-17.472-2.496-17.472-4.992-32.48-9.984-44.96-12.48s-22.464-4.992-29.984-4.992c0-2.496 0-2.496 0-2.496 0-9.984-2.496-17.472-7.488-17.472s-7.488 2.496-9.984 9.984c-2.496 12.48-4.992 27.488-4.992 42.464s0 32.48 0 52.448c0 14.976 4.992 29.984 9.984 42.464 7.488 19.968 14.976 19.968 14.976 9.984 0-12.48 0-17.472 0-24.96v-4.992c4.992 2.496 9.984 4.992 17.472 7.488s14.976 7.488 22.464 9.984c7.488 2.496 14.976 4.992 19.968 7.488 7.488 2.496 12.48 4.992 17.472 4.992 12.48 2.496 22.464 4.992 32.48 4.992s19.968-2.496 27.488-9.984c9.984-7.488 14.976-14.976 14.976-19.968s-2.496-9.984-9.984-17.472c-4.992-7.488-9.984-14.976-14.976-24.96s-7.488-17.472-12.48-27.488c0 0 0 0-2.496-2.496 2.496-2.496 4.992-2.496 7.488-4.992zM8057.12 430.528c2.496 0 4.992 2.496 7.488 2.496s4.992 0 7.488 0c0 2.496 2.496 2.496 2.496 4.992s2.496 4.992 4.992 4.992c4.992 7.488 9.984 17.472 14.976 27.488s7.488 17.472 9.984 19.968 4.992 17.472-2.496 19.968c-7.488 2.496-17.472 2.496-32.48 0-12.48-2.496-24.96-4.992-37.472-9.984s-24.96-9.984-34.976-14.976c-4.992-2.496-7.488-2.496-9.984-4.992 0-24.96 0-49.952 0-74.912 9.984 4.992 19.968 9.984 32.48 12.48 7.488 4.992 22.464 9.984 37.472 12.48zM9335.872 233.216c-7.488 0-9.984 4.992-12.48 17.472 0 4.992 0 12.48 0 19.968s2.496 17.472 4.992 24.96c2.496 7.488 4.992 14.976 7.488 19.968s4.992 9.984 7.488 9.984c4.992 0 7.488-2.496 9.984-4.992 2.496-4.992 4.992-9.984 4.992-17.472 0-4.992 0-9.984 0-17.472-2.496-7.488-2.496-14.976-4.992-22.464s-4.992-14.976-7.488-19.968c-4.992-7.488-7.488-9.984-9.984-9.984zM9415.808 665.28c9.984 4.992 19.968 4.992 29.984-2.496-2.496-7.488-4.992-19.968-9.984-34.976s-9.984-32.48-14.976-52.448v0c-12.48-44.96-22.464-84.928-29.984-117.376s-34.976-104.896-39.968-89.92c0 2.496 0 7.488 2.496 19.968 2.496 9.984 4.992 27.488 9.984 49.952s12.48 52.448 19.968 89.92c7.488 37.472 19.968 82.432 32.48 134.88v2.496zM3621.472 675.264c2.496-7.488 7.488-14.976 9.984-19.968 4.992-7.488 7.488-12.48 9.984-19.968 2.496-4.992 4.992-9.984 7.488-12.48 12.48-17.472 29.984-24.96 37.472-2.496 2.496 7.488 0 9.984-12.48 17.472-9.984 7.488-24.992 17.472-27.488 19.968-7.488 7.488-12.48 14.976-17.472 22.464-4.992 4.992-9.984 12.48-14.976 17.472-2.496 2.496-4.992 4.992-7.488 4.992 0 0 0-2.496 2.496-7.488 7.488-4.992 9.984-12.48 12.48-19.968zM4046.048 168.288c0 2.496-2.496 2.496-2.496 4.992-2.496 2.496-4.992 4.992-9.984 7.488s-12.48 7.488-19.968 12.48c-7.488 4.992-19.968 9.984-34.976 17.472-7.488 4.992-17.472 7.488-29.984 12.48s-24.992 9.984-37.472 14.976c-14.976 4.992-29.984 9.984-44.96 17.472-14.976 4.992-29.984 9.984-47.456 14.976 9.984 7.488 19.968 17.472 32.48 27.488s22.464 22.464 34.976 37.472c7.488 7.488 9.984 14.976 7.488 19.968 0 4.992-7.488 9.984-17.472 17.472-19.968 12.48-29.984 17.472-32.48 17.472s0-4.992 9.984-14.976c4.992-4.992 7.488-7.488 7.488-12.48 2.496-4.992 0-9.984-2.496-17.472s-9.984-14.976-19.968-24.96c-9.984-9.984-22.464-24.96-39.968-39.968-9.984 2.496-17.472 4.992-27.488 7.488-7.488 2.496-17.472 4.992-24.992 7.488 2.496 4.992 4.992 12.48 7.488 17.472s4.992 12.48 7.488 19.968c2.496 12.48 7.488 27.488 9.984 42.464s4.992 29.984 7.488 44.96c37.472 12.48 64.928 17.472 82.432 14.976 7.488 0 12.48 0 14.976 0 2.496 2.496 4.992 2.496 4.992 4.992s0 4.992-2.496 7.488c-2.496 2.496-7.488 4.992-12.48 7.488-7.488 2.496-17.472 2.496-29.984 2.496-12.48-2.496-29.984-4.992-52.448-14.976 2.496 17.472 4.992 37.472 7.488 57.44 7.488 4.992 14.976 9.984 19.968 12.48s9.984 4.992 12.48 7.488c4.992 2.496 9.984 4.992 9.984 7.488 2.496 2.496 2.496 4.992 0 7.488 0 2.496-2.496 4.992-7.488 4.992-2.496 0-7.488 0-12.48 0-4.992-2.496-14.976-4.992-24.992-7.488 0 4.992 0 9.984 0 14.976s0 9.984 0 14.976c0 4.992 0 7.488 0 9.984s0 22.464 0 24.96c7.488 0 12.48 0 32.48 4.992 7.488 2.496 14.976 4.992 22.464 4.992 12.48 2.496 17.472 4.992 19.968 7.488 0 2.496-2.496 7.488-9.984 9.984s-17.472 2.496-29.984 0c-12.48-2.496-29.984-9.984-54.944-19.968 17.472 12.48 32.48 24.96 42.464 37.472s19.968 22.464 27.488 32.48c4.992 7.488 7.488 17.472 7.488 27.488-2.496 9.984-7.488 17.472-19.968 27.488-7.488 4.992-12.48 9.984-14.976 9.984s-2.496-4.992 2.496-12.48c7.488-14.976 4.992-29.984-4.992-47.456s-29.984-39.968-57.44-67.424c-7.488-7.488-14.976-12.48-22.464-17.472s-14.976-7.488-22.464-9.984c-17.472-4.992-34.976-9.984-49.952-12.48s-27.488-4.992-39.968-4.992c-24.992 0-39.968-2.496-42.464-7.488-2.496-2.496 4.992-7.488 22.464-12.48 12.48-2.496 32.48-2.496 59.936 2.496s62.432 14.976 104.896 34.976v-12.48c0-12.48 0-9.984 0-22.464 0-4.992 0-9.984 0-14.976s0-9.984 0-14.976c-7.488-2.496-17.472-7.488-24.992-9.984s-14.976-7.488-22.464-9.984c-14.976-2.496-29.984-9.984-42.464-14.976s-24.992-9.984-37.472-12.48c-9.984-2.496-17.472-4.992-22.464-9.984-4.992-2.496-4.992-7.488-4.992-14.976 0-4.992 4.992-4.992 12.48-4.992 7.488 2.496 19.968 4.992 34.976 12.48 9.984 4.992 17.472 7.488 24.992 9.984s14.976 4.992 22.464 9.984c7.488 2.496 12.48 4.992 19.968 9.984 7.488 2.496 32.48 12.48 42.464 14.976-2.496-29.984-2.496-39.968-4.992-49.952l-2.496-4.992c-12.48-9.984-62.432-27.488-77.408-34.976-14.976-4.992-27.488-12.48-37.472-17.472s-19.968-7.488-27.488-9.984c-7.488-2.496-14.976-4.992-19.968-7.488s-4.992-7.488-2.496-14.976c2.496-4.992 7.488-7.488 14.976-7.488s17.472 4.992 34.976 12.48c19.968 9.984 39.968 19.968 59.936 27.488 17.472 7.488 34.976 14.976 52.448 19.968-2.496-12.48-4.992-24.96-4.992-37.472-2.496-12.48-4.992-24.96-7.488-37.472s-7.488-24.96-9.984-32.48c-17.472 4.992-32.48 9.984-49.952 12.48s-34.976 7.488-52.448 9.984c-17.472 2.496-49.952 4.992-67.424 7.488s-4.992-9.984 62.432-19.968c29.984-4.992 67.424-14.976 102.4-24.96-24.992-64.928-107.392-74.912-137.376-82.432-32.48-7.488-97.408 9.984-49.952-7.488 17.472-7.488 37.472-7.488 57.44-4.992 49.952 4.992 127.392 27.488 149.856 89.92 7.488-2.496 14.976-4.992 22.464-7.488s14.976-4.992 22.464-7.488c-2.496-4.992-2.496-7.488 0-7.488s7.488 0 12.48 4.992c19.968-7.488 39.968-14.976 57.44-22.464s34.976-14.976 52.448-22.464c17.472-7.488 34.976-14.976 49.952-24.96 17.472-7.488 34.976-17.472 52.448-27.488 9.984-4.992 17.472-7.488 22.464-9.984s7.488-2.496 9.984-2.496c2.496 0 2.496 2.496 2.496 4.992-4.992-2.496-4.992 0-4.992 4.992zM4338.272 340.608c0 9.984 2.496 24.96 4.992 42.464s7.488 37.472 9.984 57.44c4.992 19.968 9.984 42.464 14.976 64.928s9.984 39.968 14.976 57.44c7.488 22.464 12.48 39.968 14.976 54.944 2.496 12.48 4.992 22.464 4.992 29.984s0 12.48-2.496 17.472c-2.496 2.496-2.496 7.488-4.992 9.984-7.488 12.48-17.472 22.464-27.488 27.488s-17.472 9.984-24.96 9.984c-7.488 0 42.464-24.96 34.976-69.92-2.496-19.968-9.984-42.464-14.976-64.928s-9.984-47.456-14.976-72.416c-4.992-24.96-9.984-49.952-14.976-74.912s-9.984-49.952-14.976-74.912c-12.48 9.984-27.488 22.464-37.472 39.968-12.48 14.976-22.464 29.984-29.984 47.456 14.976 17.472 34.976 34.976 62.432 54.944 17.472 12.48 27.488 22.464 29.984 24.96 0 2.496-4.992 2.496-14.976-4.992-14.976-7.488-27.488-14.976-42.464-24.96s-27.488-22.464-39.968-34.976c-4.992 12.48-9.984 27.488-12.48 39.968-2.496 17.472-4.992 34.976-2.496 49.952s4.992 32.48 7.488 47.456c2.496 7.488 2.496 14.976 0 14.976-2.496 2.496-7.488 0-9.984-9.984-4.992-9.984-7.488-19.968-9.984-32.48s-2.496-24.96-2.496-37.472c0-12.48 0-24.96 2.496-37.472s4.992-19.968 7.488-29.984c2.496-4.992 2.496-7.488 4.992-9.984s2.496-7.488 4.992-9.984c-54.944-57.44-52.448-74.912-52.448-82.432-2.496-7.488 7.488-27.488 19.968 2.496 7.488 14.976 27.488 44.96 42.464 62.432 9.984-19.968 22.464-37.472 34.976-52.448s27.488-29.984 44.96-39.968c-4.992-42.464-14.976-54.944-19.968-62.432-9.984-12.48-32.48-32.48-54.944-32.48-14.976 0 14.976-17.472 24.96-19.968 4.992 0 62.432 4.992 72.416 99.904 4.992-2.496 9.984-4.992 17.472-9.984 4.992-2.496 12.48-2.496 17.472-2.496 7.488 0 17.472 0 17.472 7.488-7.488 9.984-39.968 9.984-62.432 27.488zM4697.92 435.52c-12.48 29.984-39.968 37.472-57.44 42.464-27.488 4.992-44.96 0-52.448-2.496-12.48 24.96-32.48 52.448-49.952 59.936 14.976 9.984 27.488 22.464 37.472 32.48s17.472 19.968 24.96 27.488c7.488 9.984 12.48 17.472 14.976 27.488s7.488 17.472 9.984 24.96c7.488 27.488 0 47.456-24.96 62.432-9.984 4.992-22.464 7.488-34.976 7.488-12.48-2.496-27.488-7.488-39.968-14.976-7.488-4.992-14.976-9.984-24.96-17.472s-17.472-14.976-24.96-22.464c-7.488-7.488-14.976-14.976-22.464-22.464s-9.984-12.48-12.48-14.976c-2.496-4.992-2.496-7.488-2.496-7.488 0-2.496 0-2.496 2.496-2.496 0 0 9.984 7.488 19.968 17.472 2.496 2.496 27.488 19.968 47.456 37.472 7.488 4.992 17.472 12.48 27.488 14.976 14.976 7.488 17.472 7.488 29.984 12.48 9.984 2.496 17.472 2.496 27.488 0 7.488-2.496 12.48-9.984 12.48-22.464 0-9.984-2.496-22.464-7.488-32.48-4.992-12.48-9.984-22.464-17.472-32.48s-14.976-19.968-22.464-27.488c-7.488-7.488-17.472-12.48-24.96-17.472-9.984-4.992-14.976-7.488-17.472-9.984s-2.496-9.984-2.496-19.968c0-9.984 9.984-9.984 24.96-17.472s29.984-27.488 37.472-42.464c-12.48-4.992-29.984-14.976-44.96-22.464s-27.488-14.976-42.464-24.96c-14.976-7.488-27.488-17.472-39.968-24.96s-22.464-14.976-32.48-22.464c-9.984-7.488-17.472-12.48-17.472-14.976s4.992-2.496 12.48 0c7.488 0 14.976 2.496 22.464 4.992s17.472 7.488 32.48 17.472c12.48 7.488 27.488 17.472 44.96 27.488 14.976 9.984 34.976 19.968 54.944 34.976 2.496 2.496 4.992 2.496 7.488 4.992s4.992 2.496 7.488 4.992c4.992-7.488 2.496-4.992 4.992-7.488s2.496-4.992 4.992-7.488c9.984-22.464 14.976-39.968 19.968-54.944 0 0-44.96-2.496-47.456-2.496s-2.496-2.496 0-2.496 4.992-2.496 12.48-4.992 22.464-2.496 34.976-4.992c2.496-24.96 2.496-49.952-2.496-74.912-4.992-27.488-12.48-47.456-24.96-59.936s-29.984-14.976-52.448-19.968c-49.952-9.984-92.416 24.96-87.424 17.472s9.984-14.976 17.472-17.472c7.488-4.992 27.488-17.472 42.464-19.968 7.488 0 14.976-2.496 24.96-2.496 14.976 0 29.984 2.496 42.464 7.488s22.464 12.48 29.984 19.968c7.488 7.488 14.976 17.472 19.968 27.488s7.488 22.464 9.984 32.48c2.496 32.48 2.496 59.936 2.496 84.928 7.488 0 12.48 0 19.968 0s12.48 2.496 17.472 2.496c7.488 2.496 12.48 4.992 17.472 9.984s9.984 9.984 12.48 14.976c2.496 2.496 7.488 17.472-2.496 37.472zM4655.456 390.56c-4.992-2.496-7.488-2.496-12.48-2.496s-7.488 0-12.48-2.496c-4.992 22.464-12.48 47.456-24.96 72.416 22.464 7.488 44.96 0 59.936-12.48 17.472-14.976 14.976-29.984 14.976-37.472-4.992-7.488-12.48-12.48-24.96-17.472zM5324.8 238.208c-4.992 2.496-9.984 7.488-17.472 9.984s-14.976 4.992-24.96 7.488c-9.984 2.496-17.472 2.496-27.488 2.496s-19.968 0-27.488-2.496c-9.984 0-19.968-2.496-29.984-2.496-9.984-2.496-19.968-2.496-29.984-4.992 0 0 0 2.496 0 2.496s0 2.496 0 2.496c0 4.992 0 12.48 2.496 24.96 0 9.984 2.496 22.464 2.496 37.472 17.472 9.984 32.48 17.472 42.464 24.96s19.968 14.976 29.984 24.96c9.984 7.488 14.976 17.472 17.472 24.96s2.496 17.472-2.496 24.96c-2.496 7.488-9.984 12.48-19.968 19.968-9.984 4.992-19.968 9.984-34.976 12.48-9.984 2.496-17.472 2.496-24.96 2.496 0 14.976 2.496 29.984 2.496 42.464 0 14.976 2.496 34.976 2.496 47.456 17.472 4.992 32.48 12.48 47.456 17.472s29.984 9.984 42.464 12.48c9.984 2.496 14.976 4.992 19.968 7.488s7.488 4.992 7.488 4.992c0 2.496 0 2.496 0 4.992-2.496 2.496-4.992 2.496-7.488 4.992s-4.992 2.496-7.488 2.496c-2.496 0-4.992 0-9.984 0s-9.984-2.496-14.976-4.992c-7.488-2.496-14.976-4.992-24.96-7.488-7.488-2.496-14.976-4.992-22.464-7.488s-17.472-7.488-27.488-9.984c0 9.984 0 9.984 2.496 17.472 0 7.488 0 12.48 0 17.472s0 12.48 0 19.968c0 9.984 2.496 19.968 2.496 29.984s2.496 19.968 2.496 27.488c0 9.984 2.496 14.976 2.496 17.472 2.496 7.488 0 14.976-4.992 22.464s-12.48 12.48-24.96 17.472c-19.968 7.488-19.968 7.488-24.96 4.992s0-4.992 9.984-12.48c4.992-4.992 12.48-17.472 12.48-17.472 4.992-7.488 7.488-14.976 7.488-22.464 0-4.992 0-14.976-2.496-24.96 0-9.984-2.496-22.464-2.496-34.976s-2.496-27.488-2.496-39.968c0-14.976-2.496-19.968-2.496-34.976-24.96-9.984-49.952-19.968-74.912-32.48s-47.456-22.464-67.424-32.48c-19.968-9.984-32.48-14.976-37.472-9.984-2.496 2.496 0 14.976 9.984 34.976 2.496 7.488 4.992 14.976 4.992 22.464 0 9.984 0 17.472-2.496 27.488 0 2.496-2.496 9.984-7.488 17.472-4.992 9.984-7.488 9.984-14.976 17.472s-14.976 9.984-17.472 7.488c-2.496-2.496-2.496-7.488 4.992-17.472 2.496-7.488 2.496-7.488 4.992-12.48 2.496-9.984 2.496-12.48 4.992-22.464 0-9.984-2.496-17.472-4.992-24.96s-4.992-17.472-9.984-27.488c-7.488-22.464-7.488-37.472 4.992-42.464 4.992-2.496 7.488-2.496 12.48-4.992 4.992 0 9.984 0 14.976 0s9.984 2.496 17.472 7.488c7.488 2.496 14.976 7.488 24.96 14.976 14.976 9.984 32.48 19.968 54.944 29.984s47.456 19.968 72.416 29.984c0-12.48-2.496-34.976-2.496-47.456s-2.496-24.96-2.496-37.472c-19.968-2.496-39.968-7.488-57.44-14.976-19.968-7.488-34.976-12.48-47.456-22.464-9.984-7.488-17.472-12.48-22.464-19.968s-9.984-14.976-12.48-22.464c-2.496-7.488-2.496-12.48 0-19.968 2.496-4.992 7.488-9.984 12.48-12.48 7.488-2.496 7.488-2.496 14.976-4.992l-9.984 12.48c-2.496 4.992-4.992 9.984-2.496 22.464s19.968 27.488 42.464 39.968c12.48 7.488 22.464 12.48 34.976 14.976s24.96 4.992 39.968 7.488c0-19.968-2.496-34.976-2.496-47.456s-2.496-19.968-2.496-22.464c0-2.496 0-4.992 0-12.48 0-4.992 0-12.48-2.496-19.968-4.992-2.496-9.984-4.992-14.976-7.488s-9.984-4.992-17.472-7.488c-7.488-2.496-9.984-4.992-14.976-7.488-7.488-2.496-12.48-4.992-19.968-9.984-7.488-2.496-12.48-4.992-19.968-9.984-24.96-9.984-39.968-19.968-47.456-29.984s-9.984-19.968-7.488-29.984c0-4.992 2.496-7.488 4.992-9.984s4.992-4.992 9.984-4.992c4.992 0 9.984 0 19.968 0 7.488 2.496 19.968 2.496 32.48 7.488 14.976 2.496 29.984 7.488 49.952 9.984s39.968 7.488 59.936 7.488c19.968 2.496 39.968 2.496 59.936 4.992 19.968 0 34.976 0 47.456-4.992 24.96-4.992 39.968-7.488 47.456-7.488 9.984-2.496 7.488 2.496-2.496 9.984zM5179.936 380.576c0 14.976 2.496 29.984 2.496 44.96 2.496 0 4.992 0 7.488 0s4.992 0 7.488 0c12.48 0 22.464-2.496 29.984-4.992s12.48-7.488 14.976-12.48c2.496-4.992 2.496-12.48-2.496-19.968-2.496-7.488-9.984-14.976-19.968-22.464-4.992-4.992-12.48-9.984-19.968-14.976s-14.976-9.984-22.464-14.976c0 14.976 0 29.984 2.496 44.96zM5092.512 235.712c-14.976-2.496-27.488-4.992-37.472-7.488-19.968-4.992-29.984-2.496-27.488 2.496 0 7.488 12.48 14.976 34.976 27.488 9.984 4.992 17.472 9.984 27.488 12.48 7.488 4.992 49.952 24.96 57.44 27.488 0-14.976-2.496-42.464-4.992-54.944-17.472 0-34.976-2.496-49.952-7.488zM6466.176 390.56c0 14.976 0 27.488 0 42.464 2.496 44.96 22.464 59.936 22.464 59.936 9.984 9.984 0 12.48-7.488 9.984-22.464-9.984-32.48-47.456-34.976-74.912 0-7.488 0-22.464 0-32.48 0-17.472 0-24.96 0-37.472s0-22.464 0-29.984c0-9.984-2.496-24.96-4.992-44.96-2.496-17.472-4.992-37.472-7.488-54.944-2.496-12.48-2.496-17.472 2.496-17.472 2.496 0 4.992 2.496 9.984 12.48 2.496 7.488 7.488 17.472 9.984 27.488s4.992 19.968 7.488 29.984c2.496 9.984 2.496 19.968 4.992 29.984 0 9.984 2.496 17.472 0 24.96-2.496 22.464-2.496 39.968-2.496 54.944zM6660.992 497.952c4.992 12.48 0 24.96-14.976 37.472-7.488 4.992-14.976 9.984-22.464 12.48s-17.472 2.496-27.488 2.496c-2.496 0-2.496 0-4.992 0s-2.496 0-4.992 0c7.488 7.488 14.976 14.976 22.464 19.968s9.984 9.984 12.48 9.984c4.992 2.496 9.984 7.488 12.48 9.984s2.496 7.488 2.496 14.976c0 7.488-4.992 12.48-12.48 17.472s-17.472 7.488-27.488 7.488c-12.48 0-29.984-2.496-44.96-7.488-17.472-4.992-39.968-12.48-64.928-22.464 22.464 12.48 39.968 24.96 52.448 32.48 12.48 9.984 22.464 17.472 29.984 24.96s9.984 12.48 9.984 14.976c0 4.992 0 7.488 0 9.984-4.992 7.488-7.488 12.48-14.976 17.472-4.992 4.992-12.48 9.984-17.472 4.992-2.496-2.496 12.48-27.488 0-37.472-12.48-12.48-24.96-22.464-39.968-32.48s-29.984-22.464-44.96-29.984c-7.488-4.992-12.48-12.48-14.976-19.968s0-12.48 2.496-14.976c2.496 0 9.984 0 17.472 2.496s19.968 7.488 34.976 14.976c17.472 4.992 34.976 9.984 54.944 17.472 19.968 4.992 32.48 7.488 39.968 4.992s7.488-4.992 2.496-12.48c-9.984-9.984-17.472-17.472-24.96-24.96s-17.472-17.472-29.984-29.984c-9.984-4.992-22.464-9.984-34.976-14.976-9.984-4.992-14.976-9.984-14.976-12.48 0 0 2.496-2.496 7.488-2.496 7.488 0 7.488 0 12.48 2.496 9.984 4.992 17.472 7.488 24.96 9.984 0-4.992 0-12.48 0-19.968 2.496-14.976 2.496-34.976 2.496-57.44-4.992-2.496-9.984-4.992-14.976-4.992-4.992-2.496-9.984-2.496-14.976-4.992s-9.984-2.496-14.976-2.496c-4.992 0-7.488 0-12.48 0s-7.488 0-7.488-2.496c0-2.496 2.496-4.992 7.488-7.488 7.488-4.992 12.48-7.488 17.472-7.488s9.984 2.496 17.472 4.992c2.496 2.496 7.488 2.496 12.48 4.992s7.488 2.496 12.48 4.992c0-4.992 0-7.488 0-12.48s0-9.984-2.496-14.976c0-2.496 0-42.464-4.992-49.952-14.976-2.496-42.464-12.48-44.96-14.976s-4.992-4.992-4.992-7.488c0-2.496 0-7.488 0-9.984 2.496-7.488 9.984-9.984 24.96-2.496 2.496 2.496 7.488 2.496 9.984 4.992 4.992 2.496 9.984 2.496 14.976 4.992 0-12.48-2.496-24.96-2.496-39.968s-2.496-29.984-2.496-44.96c0-14.976 0-22.464 4.992-24.96s7.488 2.496 9.984 14.976c2.496 17.472 4.992 34.976 7.488 49.952s4.992 32.48 4.992 49.952c4.992 2.496 7.488 2.496 12.48 4.992s9.984 2.496 14.976 4.992 12.48 7.488 9.984 14.976c0 2.496-2.496 4.992-7.488 4.992-2.496 0-9.984-2.496-19.968-4.992-2.496-2.496-7.488-2.496-12.48-4.992 0 7.488 0 14.976 2.496 24.96 0 7.488 0 17.472 2.496 27.488 0 24.96 2.496 24.96 2.496 29.984 9.984 2.496 29.984 2.496 32.48 4.992s4.992 4.992 4.992 7.488c0 2.496-2.496 4.992-2.496 7.488-2.496 4.992-4.992 7.488-9.984 7.488s-9.984 0-14.976-2.496c-2.496 0 77.408-2.496 77.408-2.496-2.496 0-84.928 0-84.928-2.496 0 14.976 0 29.984 0 42.464-2.496 12.48-2.496 24.96-4.992 32.48 2.496 0 7.488 2.496 12.48 2.496s7.488 0 12.48 2.496c14.976 2.496 24.96 0 32.48-7.488s12.48-14.976 12.48-27.488c0-22.464 0-47.456 2.496-72.416 0-24.96 0-52.448 0-77.408s0-49.952 0-69.92c0-22.464 0-39.968 0-54.944 0-7.488-2.496-9.984-7.488-12.48-4.992 0-9.984 4.992-19.968 14.976-4.992 4.992-9.984 9.984-14.976 14.976s-9.984 9.984-17.472 14.976c-7.488 4.992-12.48 7.488-12.48 4.992s2.496-7.488 7.488-12.48c12.48-12.48 22.464-22.464 29.984-29.984s14.976-17.472 22.464-24.96c4.992-7.488 12.48-9.984 17.472-7.488 7.488 2.496 9.984 7.488 12.48 14.976 2.496 4.992 2.496 12.48 2.496 19.968 0 9.984 2.496 19.968 2.496 32.48s0 24.96 0 39.968c0 14.976 0 29.984-2.496 44.96 0 14.976-2.496 27.488-2.496 39.968 0 9.984 0 19.968 0 29.984s0 17.472 0 24.96c0 7.488 0 14.976 0 24.96 0 12.48 0 22.464 0 27.488 4.992-2.496 7.488 4.992 9.984 7.488zM6945.728 253.184c-2.496 4.992-4.992 12.48-9.984 22.464s-12.48 17.472-17.472 27.488c-7.488 9.984-12.48 17.472-19.968 24.96s-12.48 12.48-19.968 17.472c-4.992 2.496-7.488 4.992-9.984 2.496s0-7.488 4.992-14.976c2.496-7.488 7.488-12.48 12.48-19.968s9.984-14.976 14.976-22.464c-12.48 2.496-27.488 2.496-44.96 0s-32.48-2.496-47.456-4.992c2.496 12.48 4.992 24.96 7.488 37.472 2.496 14.976 4.992 27.488 7.488 42.464 17.472 4.992 32.48 7.488 44.96 7.488 12.48 2.496 22.464 2.496 32.48 2.496 12.48-2.496 19.968 0 22.464 2.496s0 7.488-9.984 12.48c-4.992 2.496-9.984 2.496-17.472 4.992 4.992 7.488 7.488 14.976 12.48 19.968 2.496 4.992 7.488 12.48 9.984 17.472s7.488 9.984 9.984 14.976c2.496 4.992 7.488 9.984 12.48 14.976 12.48 14.976 9.984 32.48-9.984 49.952-7.488 4.992-14.976 9.984-19.968 14.976-4.992 2.496-12.48 4.992-17.472 4.992s-9.984 0-14.976 0c-4.992 0-9.984-2.496-14.976-2.496-2.496 0-4.992-2.496-9.984-2.496-4.992-2.496-9.984-2.496-14.976-4.992 0 27.488 0 49.952 0 64.928s-2.496 27.488-2.496 37.472c-2.496 9.984-7.488 17.472-19.968 19.968-9.984 2.496-22.464 2.496-32.48-4.992-12.48-12.48 24.96 2.496 27.488-24.96 0-12.48 2.496-27.488 4.992-47.456 0-17.472 0-37.472 0-52.448-17.472-7.488-34.976-14.976-52.448-22.464s-32.48-14.976-42.464-22.464c-2.496 9.984-2.496 17.472-7.488 24.96-7.488 12.48-12.48 19.968-14.976 17.472s-2.496-7.488-2.496-14.976c0-7.488 0-14.976 0-24.96s2.496-17.472 2.496-27.488c0-9.984 2.496-17.472 4.992-24.96s2.496-14.976 4.992-19.968 7.488-22.464 9.984-27.488c2.496-7.488 7.488-12.48 12.48-17.472s7.488-7.488 9.984-7.488c2.496 0 2.496 2.496 2.496 7.488 2.496 0 7.488 0 9.984 2.496 4.992 0 9.984 2.496 14.976 4.992s9.984 2.496 14.976 4.992c4.992 2.496 9.984 2.496 14.976 4.992-2.496-22.464-7.488-42.464-12.48-57.44-2.496-9.984-7.488-17.472-12.48-22.464-4.992-2.496-9.984-7.488-17.472-9.984-9.984-4.992-14.976-7.488-22.464-7.488-4.992-2.496-9.984-2.496-12.48-4.992-2.496 0-7.488 0-9.984 0s-4.992 0-7.488 2.496c-17.472 2.496-19.968 0-14.976-12.48 2.496-4.992 4.992-7.488 7.488-9.984s7.488-2.496 12.48-2.496c4.992 0 12.48 2.496 22.464 7.488s22.464 9.984 39.968 17.472c7.488 2.496 17.472 4.992 29.984 7.488s24.96 2.496 37.472 4.992c12.48 0 27.488 0 39.968 0s22.464 0 29.984-2.496c2.496-4.992 7.488-9.984 9.984-14.976s7.488-9.984 9.984-17.472c2.496-4.992 4.992-9.984 9.984-9.984 2.496 0 4.992 0 4.992 2.496s2.496 4.992 2.496 9.984c2.496-9.984 2.496-4.992 0 0zM6838.336 497.952c2.496 2.496 4.992 2.496 7.488 2.496s4.992 2.496 7.488 2.496c14.976 4.992 27.488 9.984 34.976 9.984s17.472-4.992 27.488-12.48c4.992-4.992 9.984-9.984 12.48-12.48 2.496-4.992 0-9.984-4.992-19.968-7.488-12.48-14.976-24.96-22.464-34.976s-12.48-14.976-17.472-19.968c-2.496-2.496-2.496-2.496-4.992-2.496 0 0-2.496 0-4.992 2.496s-34.976 14.976-39.968 17.472c0 9.984 4.992 67.424 4.992 67.424zM6830.816 415.52c2.496 7.488 0 4.992 0 9.984 0-2.496 34.976-27.488 39.968-32.48-4.992 0-7.488 0-12.48-2.496-4.992 0-7.488-2.496-12.48-2.496-2.496 0-7.488-2.496-9.984-2.496s-7.488-2.496-9.984-2.496c0 12.48 2.496 22.464 4.992 32.48zM6803.36 378.080c-7.488-2.496-14.976-2.496-22.464-4.992s-14.976-2.496-19.968-4.992c-4.992-2.496-9.984-2.496-12.48-2.496s-7.488-2.496-9.984-2.496c-4.992 9.984-7.488 19.968-9.984 32.48-2.496 9.984-2.496 22.464-2.496 34.976 0 2.496 0 4.992 0 7.488s0 4.992 0 7.488c2.496 2.496 7.488 2.496 14.976 7.488 4.992 2.496 12.48 7.488 19.968 9.984 7.488 4.992 14.976 7.488 27.488 12.48 9.984 4.992 19.968 9.984 32.48 14.976 0-7.488-2.496-14.976-2.496-19.968 0-12.48-2.496-24.96-2.496-42.464-7.488-17.472-9.984-34.976-12.48-49.952zM7590.080 455.488c-4.992 2.496-7.488 4.992-14.976 7.488-4.992 2.496-12.48 2.496-19.968 2.496s-12.48 0-19.968 0c-7.488 0-12.48-2.496-17.472-2.496-7.488-2.496-17.472-4.992-29.984-7.488s-32.48-7.488-59.936-12.48c0 17.472-2.496 29.984-2.496 42.464s-2.496 24.96-2.496 37.472c0 9.984-2.496 24.96-2.496 24.96 4.992 2.496 12.48 2.496 14.976 2.496 9.984 0 12.48 0 19.968 0 9.984 0 14.976 0 24.96 0 7.488 0 12.48 4.992 12.48 7.488s-2.496 7.488-7.488 12.48c-4.992 2.496-9.984 4.992-19.968 4.992s-24.96-2.496-47.456-7.488c-4.992 12.48-12.48 27.488-22.464 39.968s-19.968 22.464-29.984 29.984c-4.992 2.496-9.984 4.992-14.976 7.488 0 0 2.496 0 2.496 2.496 0 0 2.496 0 2.496 2.496 22.464 7.488 44.96 14.976 62.432 19.968 19.968 4.992 39.968 9.984 59.936 12.48 14.976 2.496 24.96 2.496 24.96 4.992 2.496 2.496 0 4.992-7.488 9.984s-14.976 9.984-19.968 14.976c-4.992 2.496-12.48 4.992-17.472 7.488s-17.472 4.992-22.464 7.488c-14.976 0-2.496-7.488 2.496-12.48s7.488-7.488 9.984-9.984c0-2.496 0-4.992-4.992-7.488s-12.48-4.992-22.464-4.992c-14.976-2.496-29.984-7.488-39.968-9.984-12.48-2.496-22.464-7.488-32.48-9.984-9.984-4.992-19.968-7.488-29.984-12.48s-19.968-9.984-32.48-14.976c-9.984-4.992-19.968-12.48-32.48-19.968-9.984-7.488-19.968-14.976-24.96-19.968-9.984-9.984-14.976-17.472-17.472-24.96s0-12.48 2.496-17.472c0-2.496 2.496-2.496 2.496-4.992 0 0-4.992 22.464 27.488 42.464 12.48 7.488 24.96 14.976 39.968 24.96 14.976 7.488 32.48 14.976 49.952 22.464 2.496-2.496 4.992-4.992 7.488-7.488s7.488-4.992 9.984-9.984 14.976-17.472 22.464-27.488c4.992-9.984 9.984-22.464 14.976-37.472-9.984-2.496-17.472-4.992-27.488-7.488-7.488-2.496-17.472-4.992-24.96-9.984-9.984-2.496-17.472-7.488-27.488-12.48s-22.464-9.984-32.48-14.976c-19.968-9.984-37.472-7.488-37.472-7.488 4.992-2.496 9.984-12.48 24.96-12.48s32.48 4.992 57.44 17.472c9.984 4.992 22.464 9.984 34.976 14.976 14.976 4.992 27.488 9.984 39.968 12.48 0-2.496 0-4.992 0-7.488s0-4.992 0-7.488c2.496-17.472 2.496-9.984 2.496-24.96 0-9.984 2.496-19.968 2.496-29.984s2.496-22.464 2.496-34.976c-12.48-2.496-27.488-4.992-39.968-9.984-12.48-2.496-24.96-4.992-32.48-9.984-7.488-2.496-12.48-4.992-17.472-4.992s-14.976-4.992-17.472-4.992c-24.96-7.488-54.944-17.472-69.92-22.464-12.48-4.992-27.488-7.488-44.96-9.984-9.984 0-17.472-2.496-19.968-4.992s0-7.488 2.496-14.976c2.496-4.992 9.984-9.984 22.464-9.984s29.984 4.992 52.448 14.976c22.464 9.984 49.952 19.968 77.408 29.984 29.984 9.984 57.44 17.472 87.424 22.464 0-12.48 0-27.488 2.496-42.464 0-14.976 0-29.984 0-42.464s0-24.96 0-37.472c0-9.984 0-19.968 0-24.96-2.496-14.976-4.992-27.488-7.488-37.472s-7.488-17.472-14.976-19.968c-4.992-4.992-14.976-7.488-22.464-7.488-9.984 0-19.968 0-34.976 2.496-7.488 2.496-17.472 2.496-29.984 4.992s-54.944 9.984-42.464 2.496c19.968-9.984 69.92-24.96 77.408-27.488 19.968-7.488 52.448-19.968 57.44-17.472s9.984 4.992 14.976 14.976c4.992 9.984 9.984 17.472 14.976 27.488s7.488 19.968 9.984 34.976c2.496 14.976 2.496 32.48 2.496 54.944s0 52.448-2.496 87.424c0 4.992 0 12.48 0 17.472s0 9.984 0 14.976c32.48 7.488 62.432 9.984 87.424 12.48 27.488 2.496 44.96 2.496 57.44 0 17.472-2.496 24.96-2.496 27.488 0 4.992 7.488 0 14.976-9.984 22.464zM8656.544 500.448c7.488 12.48 14.976 24.96 24.992 32.48 7.488 9.984 14.976 17.472 19.968 22.464 2.496 2.496 4.992 7.488 4.992 14.976 0 4.992-4.992 9.984-12.48 14.976-17.472 9.984-27.488 17.472-29.984 24.96s0 12.48 7.488 19.968c2.496 2.496 7.488 4.992 9.984 9.984 4.992 2.496 9.984 7.488 12.48 9.984 4.992 2.496 9.984 7.488 12.48 9.984 4.992 2.496 7.488 4.992 9.984 4.992 9.984 4.992 12.48 9.984 12.48 12.48 0 4.992-4.992 9.984-14.976 19.968-12.48 12.48-22.464 19.968-29.984 24.96s-9.984 7.488-12.48 4.992c-2.496 0-2.496-2.496 0-7.488s4.992-12.48 9.984-19.968c2.496-4.992 4.992-12.48 2.496-17.472s-7.488-12.48-17.472-22.464c-2.496-2.496-7.488-7.488-12.48-12.48s-9.984-9.984-17.472-14.976c-7.488-4.992-12.48-9.984-19.968-14.976s-12.48-9.984-17.472-12.48c-12.48-7.488-19.968-12.48-22.464-17.472s-4.992-7.488-4.992-9.984c2.496-2.496 2.496-2.496 4.992-2.496s4.992 0 9.984 2.496c4.992 2.496 12.48 4.992 19.968 9.984s19.968 9.984 32.48 19.968c7.488-7.488 14.976-12.48 17.472-17.472 4.992-4.992 7.488-9.984 7.488-12.48 0-4.992 0-7.488-2.496-12.48s-4.992-9.984-7.488-14.976c-7.488-12.48-12.48-22.464-19.968-34.976-7.488-9.984-14.976-22.464-19.968-32.48-7.488-12.48-2.496-4.992-7.488-12.48-9.984-14.976-19.968-29.984-29.984-44.96s-19.968-27.488-29.984-42.464c-9.984-14.976-29.984-32.48-22.464-29.984 14.976 4.992 17.472 7.488 27.488 17.472 14.976 12.48 24.992 22.464 34.976 37.472s22.464 29.984 32.48 49.952c2.496-4.992 4.992-9.984 4.992-19.968-2.496-49.952-4.992-84.928-7.488-109.888 0-24.96-2.496-42.464 0-49.952 0-7.488 2.496-17.472 4.992-24.96s4.992-14.976 7.488-19.968c2.496-7.488 7.488-12.48 12.48-9.984s4.992 7.488 4.992 14.976c-2.496 12.48-2.496 27.488-2.496 42.464 0 17.472 0 32.48 0 49.952s0 34.976 2.496 49.952c0 17.472 2.496 32.48 4.992 44.96 2.496 19.968-2.496 34.976-14.976 44.96 2.496 4.992 4.992 9.984 7.488 14.976 4.992 4.992 7.488 9.984 12.48 14.976zM8923.776 562.88c0-2.496 0-4.992-2.496-7.488-2.496-12.48-2.496-19.968-2.496-22.464s2.496-4.992 7.488-4.992c2.496 0 4.992 2.496 7.488 7.488s4.992 12.48 7.488 22.464c0 4.992 2.496 9.984 2.496 17.472s2.496 17.472 4.992 24.96c2.496 9.984 2.496 17.472 4.992 27.488s2.496 14.976 4.992 22.464 4.992 22.464 7.488 29.984c2.496 7.488 4.992 14.976 7.488 19.968 4.992 9.984-2.496 24.96-24.992 37.472-7.488 4.992-17.472 7.488-24.992 7.488s-12.48 0-14.976-2.496c-4.992-2.496-7.488-7.488-12.48-7.488-4.992-2.496-12.48-4.992-24.992-7.488-17.472-4.992-32.48-9.984-44.96-17.472s-22.464-12.48-24.992-19.968c-2.496-7.488-2.496-9.984-2.496-9.984 2.496 0 2.496 2.496 4.992 4.992 0 2.496 2.496 2.496 7.488 4.992 2.496 2.496 7.488 2.496 14.976 4.992 9.984 2.496 22.464 4.992 32.48 9.984 9.984 2.496 19.968 7.488 29.984 9.984 2.496 2.496 7.488 2.496 12.48 4.992s9.984 4.992 14.976 7.488c7.488 2.496 14.976 2.496 22.464-2.496s9.984-9.984 9.984-17.472c0-2.496-2.496-9.984-2.496-19.968-2.496-9.984-2.496-19.968-4.992-32.48s-4.992-24.96-4.992-37.472c-2.496-12.48-2.496-24.96-4.992-32.48-2.496 0-7.488 0-12.48 0s-9.984 0-14.976-2.496c-7.488-2.496-17.472-2.496-27.488-4.992s-44.96-4.992-59.936-7.488c7.488 4.992 0 47.456 4.992 54.944 2.496 0 82.432 17.472 87.424 17.472 2.496 0 4.992 2.496 7.488 2.496 4.992 2.496 9.984 4.992 12.48 4.992 2.496 2.496 2.496 2.496-2.496 4.992s-9.984 2.496-14.976 2.496c-4.992 0-12.48 0-22.464-2.496-4.992 0-9.984-2.496-14.976-2.496-4.992-2.496-12.48-2.496-17.472-4.992-7.488-2.496-12.48-2.496-17.472-4.992s-9.984-4.992-14.976-4.992c0 7.488-2.496 14.976-4.992 22.464s-7.488 14.976-14.976 17.472c-7.488 4.992-12.48 4.992-14.976 2.496s-2.496-4.992 2.496-7.488 7.488-9.984 9.984-14.976c2.496-4.992 2.496-14.976 2.496-27.488 0-7.488 0-12.48 0-22.464 0-7.488 0-14.976-2.496-24.96 0-7.488-2.496-14.976-2.496-19.968s-2.496-9.984-2.496-9.984c-2.496-2.496-2.496-7.488 0-12.48s4.992-9.984 7.488-14.976c2.496-4.992 7.488-7.488 9.984-7.488s2.496 2.496 4.992 7.488c0 2.496 0 4.992 0 9.984s0 9.984 0 14.976c7.488 0 17.472 0 29.984 2.496 9.984 2.496 17.472 2.496 24.992 4.992 4.992 2.496 14.976 2.496 24.992 4.992 4.992 2.496 24.992 0 24.992 0zM9088.608 445.504c-2.496 4.992-7.488 7.488-19.968 7.488-7.488 0-22.464 0-44.96 0s-47.456-2.496-82.432-7.488c-12.48-2.496-24.992-2.496-34.976-2.496s-22.464-2.496-37.472-7.488c17.472 19.968 29.984 34.976 39.968 42.464s19.968 12.48 27.488 14.976c14.976 4.992 17.472 9.984 7.488 14.976-7.488 4.992-12.48 4.992-17.472 4.992s-9.984-2.496-19.968-7.488c-4.992-2.496-12.48-4.992-22.464-9.984s-19.968-7.488-32.48-12.48c-9.984-4.992-22.464-7.488-29.984-9.984-9.984-2.496-14.976-4.992-17.472-4.992-7.488 0-12.48-2.496-14.976-2.496-12.48 0-19.968 9.984-27.488 7.488s-9.984-4.992-7.488-9.984c2.496-4.992 4.992-9.984 9.984-14.976 2.496-2.496 7.488-2.496 12.48-2.496s9.984 0 17.472 2.496c4.992 2.496 12.48 2.496 17.472 4.992 7.488 2.496 12.48 4.992 17.472 4.992 9.984 4.992 22.464 7.488 32.48 12.48s22.464 7.488 29.984 7.488c-4.992-7.488-12.48-14.976-19.968-24.96-7.488-7.488-14.976-14.976-19.968-19.968-7.488-4.992-14.976-9.984-24.992-17.472-9.984-4.992-17.472-9.984-24.992-12.48-4.992-2.496-12.48-4.992-17.472-7.488-7.488-2.496-12.48-4.992-19.968-7.488s-12.48-4.992-17.472-7.488c-4.992-2.496-9.984-4.992-14.976-7.488-7.488-2.496-17.472-7.488-24.992-7.488-9.984-2.496-17.472-2.496-22.464-2.496s-7.488 0-9.984-2.496c0-2.496 2.496-4.992 7.488-7.488 9.984-2.496 22.464-4.992 32.48-2.496s22.464 4.992 29.984 9.984c4.992 2.496 9.984 4.992 19.968 7.488 7.488 2.496 17.472 7.488 27.488 12.48s19.968 7.488 29.984 12.48c9.984 4.992 19.968 7.488 27.488 9.984s17.472 4.992 29.984 7.488c12.48 2.496 24.992 4.992 39.968 7.488 2.496-2.496 4.992-7.488 7.488-14.976 0-7.488 2.496-19.968 4.992-37.472 2.496-19.968 2.496-37.472 2.496-52.448s0-29.984 0-42.464c0-12.48-2.496-24.96-2.496-34.976s-2.496-19.968-4.992-27.488c-2.496-9.984-4.992-14.976-7.488-14.976s-9.984 2.496-24.992 7.488c-19.968 9.984-89.92 52.448-77.44 39.968 12.48-14.976 29.984-27.488 44.96-37.472 14.976-12.48 29.984-22.464 44.96-32.48 9.984-7.488 17.472-9.984 22.464-9.984s9.984 4.992 12.48 14.976 9.984 34.976 12.48 57.44c2.496 22.464 2.496 47.456 0 72.416 0 12.48-2.496 24.96-2.496 32.48 0 9.984 0 17.472-2.496 24.96 0 7.488 0 14.976 0 19.968 0 7.488 0 12.48 0 19.968s0 14.976-2.496 17.472c19.968 2.496 42.464 2.496 62.432 4.992 19.968 0 39.968 0 54.944 0 9.984 0 14.976 0 17.472 2.496 7.488 12.48 7.488 14.976 7.488 17.472zM8813.888 335.616c0 4.992 24.992 4.992 29.984 2.496s12.48-4.992 17.472-7.488c4.992-2.496 24.992-24.96 19.968-24.96s-14.976 0-19.968 0c-2.496 0-7.488 2.496-14.976 4.992-4.992 2.496-9.984 4.992-14.976 9.984-4.992 2.496-9.984 7.488-12.48 9.984-4.992 0-4.992 2.496-4.992 4.992z" />
<glyph unicode="&#xe92b;" glyph-name="logo-text" horiz-adv-x="5952" d="M3586.24 518.816h-107.328v-396.48h186.304v65.6h-79.008zM3572.832 639.52h38.752v-67.072h79.008v132.672h-117.76v26.816h-93.888v-159.488h93.888zM4036.384 731.936h80.48v-67.072h-80.48v67.072zM4011.040 731.936h-107.328v-119.232h-53.664v50.688h26.816v68.576h-171.424v-68.576h40.256v-50.688h-40.256v-67.072h40.256v-105.824h-80.48v-65.568h80.48v-186.304h-28.32v-65.6h132.672v251.904h26.816v65.6h-26.816v105.824h53.664v-211.648h-26.816v-81.984h26.816v-129.664h213.152v65.568h-105.824v64.096h105.824v241.472h-80.48v-159.488h-25.344v211.648h107.328v67.072h-107.328zM5178.144 731.936h-131.168l-187.808-238.496h132.672zM5403.2 332.48v-144.576h-345.792l423.328 544.032h-131.168l-424.8-544.032h-52.16v-65.568h636.448v210.176zM761.664 731.936v-476.96h-102.848v476.96h-107.328v-542.56h210.176v-67.072h107.328v609.632zM511.264 731.936v0h-278.72v-609.632h280.224v609.632h-1.504zM405.44 189.408h-65.6v475.488h65.6v-475.488zM4194.368 731.936v-68.576h490.4l-92.416-117.76h-80.48v-357.728h-171.424v-65.6h278.72v289.152l198.24 251.904v68.576zM3389.472 480.032v67.072h-329.408v184.832h-108.8v-542.56h-198.24v-67.072h636.448v67.072h-329.408v290.656zM1682.816 508.352h280.224v-67.072h-280.224v67.072zM1682.816 414.464h280.224v-67.072h-280.224v67.072zM2295.424 641.024v67.072h-265.312v23.84h-108.8v-23.84h-265.312v-67.072h265.312v-41.728h-265.312v-67.072h530.624v-156.512h108.8v223.584h-265.312v41.728zM2295.424 322.048h-172.896v171.424h-108.8v-171.424h-357.728v-67.072h286.176l-52.16-67.072h-234.016v-67.072h314.496l95.392 123.712 96.896-123.712h132.672l-105.824 134.144h105.824zM2493.248 121.536l-116.864 35.776 34.912 114.016 116.864-35.776-34.912-114.016zM2705.312 658.912c-20.864 25.344-53.664 46.208-96.896 61.12-31.296 8.928-61.12 13.408-89.44 10.432s-50.688-8.928-68.576-19.392c-17.888-10.432-31.296-22.368-43.232-38.752-10.432-14.912-17.888-29.824-22.368-41.728s-7.456-26.816-13.408-41.728l116.256-35.776 7.456 23.84c4.48 13.408 8.928 23.84 14.912 31.296 35.776 46.208 129.664 10.432 108.8-49.184-4.48-13.408-10.432-22.368-14.912-28.32-5.952-4.48-19.392-10.432-40.256-16.384s-37.248-13.408-50.688-23.84c-13.408-10.432-23.84-20.864-31.296-31.296s-13.408-22.368-19.392-34.272c-5.952-11.936-8.928-20.864-10.432-28.32l-17.888-62.592 116.256-35.776 13.408 46.208c7.456 26.816 14.912 43.232 19.392 50.688s10.432 13.408 17.888 16.384c7.456 4.48 19.392 8.928 37.248 13.408 16.384 4.48 31.296 10.432 41.728 17.888 10.432 5.952 22.368 16.384 32.8 29.824s17.888 28.32 22.368 46.208c4.48 17.888 5.952 38.752 4.48 62.592-1.504 26.816-13.408 52.16-34.272 77.504zM5690.88 731.936l-40.256-211.648-28.32-192.288 96.896-19.392 49.184 189.312 40.256 211.648zM5695.648 122.4l-118.56 22.816 22.56 117.088 118.56-22.816-22.56-117.088zM1323.584 706.624h-199.744l8.928 25.344h-107.328l-95.392-290.656h107.328l16.384 49.184 67.072-84.96-68.576-216.128h-83.456v-65.6h169.92l59.616 184.832h104.352l-74.528 95.392 95.392 302.592zM1149.216 494.944h-93.888l47.712 146.080h93.888l-47.712-146.080zM1456.256 539.68v192.288h-107.328v-608.128h107.328v284.704l35.776-46.208h104.352l-140.096 177.376z" />
<glyph unicode="&#xe92c;" glyph-name="logo" horiz-adv-x="3763" d="M2019.423 881.414h-33.34c-11.907 0-21.433-9.526-21.433-21.433v-66.679c0-11.907 9.526-21.433 21.433-21.433h66.679c11.907 0 21.433 9.526 21.433 21.433v33.34c0 30.958-23.814 54.772-54.772 54.772zM1383.591 821.879h-88.112v38.102c0 11.907-9.526 21.433-21.433 21.433h-73.823c-11.907 0-21.433-9.526-21.433-21.433v-123.833c0-11.907 9.526-23.814 21.433-23.814h114.307c9.526 0 21.433-7.144 21.433-21.433v-116.688c0-11.907 9.526-21.433 21.433-21.433h59.535c11.907 0 21.433 9.526 21.433 21.433v192.893c0 28.577-23.814 54.772-54.772 54.772zM1359.777 124.13h-45.247c-9.526 0-16.67 7.144-16.67 16.67v500.093c0 11.907-9.526 21.433-21.433 21.433h-66.679c-11.907 0-21.433-9.526-21.433-21.433v-526.288c0-54.772 45.247-100.019 100.019-100.019h73.823c11.907 0 21.433 9.526 21.433 21.433v66.679c-2.381 11.907-11.907 21.433-23.814 21.433zM2905.302 443.237c0 0 2.381 0 2.381 0h2.381c4.763 0 9.526 2.381 11.907 4.763 0 0 2.381 0 2.381 0 4.763 2.381 9.526 4.763 11.907 9.526 0 0 2.381 2.381 2.381 2.381l319.107 373.879c0 0 0 0 0 0 2.381 4.763 4.763 9.526 4.763 14.288 0 11.907-9.526 21.433-21.433 21.433h-80.967c-2.381 0-2.381 0-4.763 0 0 0-2.381 0-2.381 0s-2.381 0-2.381 0c-4.763 0-9.526-2.381-11.907-4.763 0 0-2.381 0-2.381 0-4.763-2.381-9.526-4.763-11.907-9.526 0 0-316.726-369.116-321.488-376.26-4.763-4.763-4.763-9.526-4.763-14.288 0-11.907 9.526-21.433 21.433-21.433h80.967c2.381 0 4.763 0 4.763 0zM2855.293 807.591c0 9.526 0 19.051 0 19.051 0 21.433-14.288 42.865-33.34 50.009 0 0 0 0 0 0-2.381 0-2.381 0-4.763 2.381 0 0 0 0 0 0s-2.381 0-2.381 0c0 0-2.381 0-2.381 0s-2.381 0-2.381 0c0 0-2.381 0-2.381 0s0 0-2.381 0-2.381 0-4.763 0v0c0 0 0 0 0 0h-650.121c-11.907 0-21.433-9.526-21.433-21.433v-45.247c0-16.67 9.526-30.958 21.433-38.102 4.763-2.381 11.907-4.763 19.051-4.763v0h2.381c0 0 0 0 2.381 0h7.144c2.381 0 2.381 0 4.763 0h481.042c4.763 0 7.144-2.381 7.144-7.144 0-2.381 0-2.381-2.381-4.763l-180.986-221.47c-9.526-9.526-14.288-23.814-14.288-38.102v-354.828c0-9.526-7.144-19.051-19.051-19.051h-152.409c-23.814 0-42.865-19.051-42.865-42.865v-50.009c0-11.907 9.526-19.051 21.433-19.051h202.419c57.153 0 104.781 47.628 104.781 104.781v342.921c0 11.907 4.763 23.814 11.907 33.34 0 0 240.521 281.005 242.902 283.386 7.144 4.763 9.526 11.907 9.526 30.958zM3686.4 116.986v121.451c0 0 0 0 0 0v14.288c0 23.814-19.051 42.865-42.865 42.865h-28.577c0 0-21.433 0-21.433 0-11.907 0-21.433-9.526-21.433-21.433v-21.433c0 0 0 0 0 0v-109.544c0-9.526-7.144-19.051-19.051-19.051 0 0 0 0 0 0h-542.958c-2.381 0-7.144 2.381-7.144 7.144 0 2.381 0 2.381 2.381 4.763l578.679 681.079c0 0 0 0 0 0 2.381 4.763 4.763 9.526 4.763 14.288 0 11.907-9.526 21.433-21.433 21.433h-90.493c-2.381 0-2.381 0-4.763 0 0 0-2.381 0-2.381 0h-2.381c-4.763 0-9.526-2.381-11.907-4.763 0 0-2.381 0-2.381 0-4.763-2.381-9.526-4.763-11.907-9.526 0 0-2.381-2.381-2.381-2.381l-602.493-709.656c-4.763-7.144-14.288-16.67-14.288-28.577v-28.577c0-30.958 23.814-54.772 54.772-54.772h707.274c57.153 0 102.4 47.628 102.4 102.4 0 0 0 0 0 0zM2074.195 83.647c0 21.433-19.051 40.484-40.484 40.484h-104.781c-11.907 0-19.051 9.526-19.051 19.051v0 0 161.935h147.647c9.526 0 16.67 7.144 16.67 16.67v73.823c0 9.526-7.144 16.67-16.67 16.67h-147.647v138.121h142.884c11.907 0 21.433 9.526 21.433 21.433v33.34c0 0 0 0 0 0v33.34c0 11.907-9.526 21.433-21.433 21.433h-142.884v197.656c0 11.907-9.526 21.433-21.433 21.433h-66.679c-11.907 0-21.433-9.526-21.433-21.433v-197.656h-130.977v111.926h42.865c11.907 0 21.433 9.526 21.433 21.433v66.679c0 11.907-9.526 21.433-21.433 21.433h-219.088c-11.907 0-21.433-9.526-21.433-21.433v-66.679c0-11.907 9.526-21.433 21.433-21.433h64.298v-109.544h-64.298c-11.907 0-21.433-9.526-21.433-21.433v-66.679c0-11.907 9.526-21.433 21.433-21.433h64.298v-138.121h-69.060c-9.526 0-16.67-7.144-16.67-16.67v-73.823c0-9.526 7.144-16.67 16.67-16.67h69.060v-164.316c0-9.526-7.144-16.67-16.67-16.67h-47.628c-11.907 0-21.433-9.526-21.433-21.433v-66.679c0-11.907 9.526-21.433 21.433-21.433h76.205c54.772 0 100.019 45.247 100.019 100.019v192.893h45.247c9.526 0 16.67 7.144 16.67 16.67v73.823c0 9.526-7.144 16.67-16.67 16.67h-45.247v138.121h130.977v-433.414c0-59.535 45.247-104.781 100.019-104.781h152.409c11.907 0 21.433 9.526 21.433 21.433v45.247zM307.2 831.405c-211.944-138.121-271.479-419.126-135.74-631.070 138.121-211.944 419.126-271.479 631.070-133.358 11.907 7.144 23.814 16.67 35.721 26.195 0 0 0 0 0 0 9.526 7.144 11.907 21.433 4.763 33.34 0 0 0 0 0 0s0 0 0 0l-21.433 33.34c-19.051 30.958-59.535 38.102-90.493 19.051 0 0 0 0 0 0s0 0 0 0c-150.028-97.637-350.065-54.772-447.702 95.256s-54.772 350.065 95.256 447.702c121.451 78.586 276.242 66.679 381.023-21.433 2.381-2.381 2.381-2.381 4.763-4.763 7.144-11.907 4.763-26.195-7.144-35.721l-271.479-176.223c-30.958-19.051-38.102-59.535-19.051-90.493l21.433-33.34c7.144-11.907 23.814-14.288 35.721-7.144l426.27 273.86c11.907 7.144 14.288 21.433 9.526 33.34 0 0 0 0 0 0-7.144 11.907-14.288 23.814-21.433 35.721-138.121 211.944-421.507 271.479-631.070 135.74zM940.651 462.288l-83.349-57.153c-11.907-7.144-14.288-23.814-7.144-35.721l54.772-85.73c7.144-11.907 23.814-14.288 35.721-7.144l42.865 28.577c35.721 23.814 45.247 69.060 21.433 104.781l-28.577 45.247c-7.144 9.526-23.814 14.288-35.721 7.144z" />
<glyph unicode="&#xe92d;" glyph-name="logout" d="M634.016 677.984v130.016q138.016-43.488 220.992-154.016t83.008-254.016q0-86.016-32.992-164t-92-136.992-136.992-92-164-32.992q-174.016 0-300 126.016t-126.016 300q0 72 24 138.016 20 62.016 62.016 119.008 79.008 107.488 218.016 151.008v-130.016q-8-2.016-26.016-12t-20.992-12.992-15.488-11.008-29.504-28q-52.992-52.992-66.016-96-24-52-24-115.008t24-119.008q8-26.016 28-52 10.016-18.016 38.016-46.016t46.016-38.016q26.016-20 52-28 84.512-36.512 176-18.016 32 6.016 58.016 18.016 43.008 12.992 96 66.016 28 28 40 46.016 16 28 28 52 22.016 66.016 22.016 115.008t-22.016 119.008q-4 8-28 52-12 16-40 44-14.496 19.488-26.016 26.496-12 7.488-16 11.488l-24 16q-24 10.016-26.016 10.016zM576 449.984h-128v510.016h128v-510.016z" />
<glyph unicode="&#xe92e;" glyph-name="mobile" d="M213.344 789.728v-683.456c0-46.624 38.304-84.928 85.568-84.928h426.176c47.296 0 85.568 38.016 85.568 84.928v683.456c0 46.624-38.304 84.928-85.568 84.928h-426.176c-47.296 0-85.568-38.016-85.568-84.928zM298.656 789.344h426.656v-554.656h-426.656v554.656zM512 106.656v0c-23.552 0-42.656 19.104-42.656 42.656s19.104 42.656 42.656 42.656c23.552 0 42.656-19.104 42.656-42.656s-19.104-42.656-42.656-42.656z" />
<glyph unicode="&#xe92f;" glyph-name="notice" d="M170.272 789.344c-46.624 0-84.928-38.080-84.928-85.088v-555.168c0-46.912 38.016-85.088 84.928-85.088h683.456c46.624 0 84.928 38.080 84.928 85.088v555.168c0 46.912-38.016 85.088-84.928 85.088h-683.456zM213.376 704h597.248c23.584 0 42.688-19.456 42.688-42.784v-469.12c0-23.616-18.976-42.784-42.688-42.784h-597.248c-23.584 0-42.72 19.456-42.72 42.784v469.12c0 23.616 18.976 42.784 42.72 42.784zM441.504 404.64c72.768-56.32 72.768-54.528 143.296 0.768s340.512 264.928 340.512 264.928l-52.384 67.36c0 0-275.072-216-316.864-247.136s-41.792-33.792-85.984-0.64c-44.192 33.184-314.496 245.12-314.496 245.12l-52.384-67.36c0 0 265.536-206.72 338.304-263.040z" />
<glyph unicode="&#xe930;" glyph-name="order-arrive" horiz-adv-x="1056" d="M514.432-64c282.784 0 512 229.216 512 512s-229.216 512-512 512c-282.784 0-512-229.216-512-512s229.216-512 512-512v0zM514.432-28.704c-263.264 0-476.704 213.408-476.704 476.704s213.408 476.704 476.704 476.704c263.264 0 476.704-213.408 476.704-476.704s-213.408-476.704-476.704-476.704v0zM660.352 200.928c124.256 34.272 189.28 118.080 189.28 229.504 0 26.752-5.728 52.896-16.832 77.728l-4.672 10.464h-627.648l-4.672-10.464c-11.104-24.832-16.832-50.976-16.832-77.728 0-111.52 65.088-195.328 189.536-229.568l4.672 17.024h-17.664v-8.992c0-33.728 27.392-61.056 61.184-61.056h195.456c33.824 0 61.184 27.296 61.184 61.056v9.056h-17.664l4.704-17.024zM650.976 234.976l-12.96-3.584v-22.496c0-14.24-11.52-25.728-25.856-25.728h-195.456c-14.304 0-25.856 11.52-25.856 25.728v22.432l-12.96 3.584c-109.248 30.048-163.584 100.032-163.584 195.52 0 21.696 4.672 42.976 13.76 63.328l-16.128-10.464h604.768l-16.128 10.464c9.088-20.352 13.76-41.632 13.76-63.328 0-95.424-54.272-165.376-163.36-195.456v0zM443.968 677.536c-102.656-21.408-183.968-89.44-210.048-176.8l33.824-10.112c22.176 74.272 92.928 133.472 183.424 152.32l-7.2 34.56zM461.44 253.792h194.208v-35.296h-194.208v35.296zM488.672 494.464l192.928 229.92 27.040-22.688-192.928-229.92-27.040 22.688zM586.784 495.84l251.712 163.456 19.232-29.6-251.712-163.456-19.232 29.6z" />
<glyph unicode="&#xe931;" glyph-name="order-arrivedone" horiz-adv-x="1056" d="M626.336 482.144h167.264c6.816-17.056 8.544-34.144 8.544-51.2 0-64.864-27.296-150.176-153.6-187.744v17.056h-187.744v-34.144h170.656v-8.544c0-13.664-11.936-25.6-25.6-25.6h-187.744c-13.664 0-25.6 11.936-25.6 25.6v22.176l-11.936 3.424c-131.424 34.144-158.72 121.184-158.72 187.744 0 17.056 3.424 34.144 8.544 51.2h395.936zM512 942.944c-273.056 0-494.944-221.856-494.944-494.944s221.856-494.944 494.944-494.944c273.056 0 494.944 221.856 494.944 494.944s-221.856 494.944-494.944 494.944zM815.776 516.256l5.12-10.24c10.24-23.904 17.056-49.504 17.056-75.104 0-105.824-59.744-184.32-170.656-218.464-1.696-30.72-27.296-54.624-59.744-54.624h-189.44c-30.72 0-56.32 23.904-59.744 54.624-110.944 34.144-170.656 110.944-170.656 218.464 0 25.6 5.12 51.2 17.056 75.104l5.12 10.24h37.536c30.72 76.8 104.096 134.816 196.256 153.6 8.544 1.696 18.784-3.424 20.48-13.664 1.696-8.544-3.424-18.784-13.664-20.48-76.8-15.36-138.24-61.44-167.264-119.456h221.856l167.264 199.68 25.6-22.176-146.784-177.504h64.864l209.92 136.544 18.784-29.024-165.536-107.52h136.544z" />
<glyph unicode="&#xe932;" glyph-name="order-complaint" d="M512 817.792c136.544 0 250.304-91.008 278.752-210.496 22.752-113.792-11.392-199.104-113.792-267.392-73.952-56.896-91.008-125.152-85.344-170.656v-5.696c0-5.696 0-5.696 0-11.392 0-34.144-34.144-62.592-73.952-68.256 0 0-5.696 0-5.696 0-34.144 0-68.256 22.752-73.952 51.2 0 11.392 0 34.144-5.696 56.896 0 62.592-28.448 113.792-85.344 147.904-68.256 39.808-108.096 102.4-119.456 182.048-17.056 125.152 68.256 250.304 199.104 284.448 28.448 5.696 56.896 11.392 85.344 11.392zM512 931.552c-39.808 0-73.952-5.696-113.792-17.056-187.744-51.2-307.2-227.552-278.752-409.6 17.056-113.792 73.952-199.104 170.656-261.696 22.752-11.392 34.144-34.144 34.144-56.896 0 0 0-62.592 5.696-73.952 11.392-85.344 91.008-147.904 182.048-147.904 5.696 0 11.392 0 17.056 0 102.4 5.696 176.352 85.344 176.352 176.352 0 11.392 0 11.392 0 11.392s0 0 0 0 0 0 0 11.392c0 34.144 11.392 56.896 39.808 73.952 136.544 96.704 187.744 227.552 153.6 381.152-34.144 193.408-204.8 312.896-386.848 312.896v0z" />
<glyph unicode="&#xe933;" glyph-name="order-confirm" horiz-adv-x="1056" d="M524.992-64c282.784 0 512 229.216 512 512s-229.216 512-512 512c-282.784 0-512-229.216-512-512s229.216-512 512-512v0zM524.992-28.704c-263.264 0-476.704 213.408-476.704 476.704s213.408 476.704 476.704 476.704c263.264 0 476.704-213.408 476.704-476.704s-213.408-476.704-476.704-476.704v0zM736.864 359.712v-123.584c0-24.064-14.944-39.072-31.808-35.648l-3.488 0.352-356.64-0.352c-16.288-3.36-31.296 11.744-31.744 36v123.232h-35.296v-123.584c0.864-44.992 34.176-78.496 74.176-70.272l-3.552-0.352 349.632 0.352c40.608-8.192 74.112 25.472 74.112 70.272v123.584h-35.296zM367.136 477.376c0.768-2.144 3.68-10.4 4.352-12.352 17.6-49.536 36.544-69.984 82.88-69.984 56.768 0 75.104 19.872 84.896 69.824 2.304 11.68 2.112 10.784 2.976 14.592l-34.464 7.68c-0.96-4.256-0.768-3.296-3.136-15.488-6.848-34.976-12.704-41.312-50.24-41.312-27.68 0-36.448 9.472-49.632 46.528-0.672 1.856-3.552 10.112-4.352 12.384l-33.28-11.84zM508.384 477.376c0.768-2.144 3.68-10.4 4.352-12.352 17.6-49.536 36.544-69.984 82.88-69.984 56.768 0 75.104 19.872 84.896 69.824 2.304 11.68 2.112 10.784 2.976 14.592l-34.464 7.68c-0.96-4.256-0.768-3.296-3.136-15.488-6.848-34.976-12.704-41.312-50.24-41.312-27.68 0-36.448 9.472-49.632 46.528-0.672 1.856-3.552 10.112-4.352 12.384l-33.28-11.84zM648.736 481.056c5.984-46.56 43.712-84.576 87.552-86.016 53.824 1.472 89.472 43.648 88.864 106.112l-0.192 2.304-17.664 123.584-34.944-4.992 17.664-123.584-0.192 2.304c0.448-44.128-21.024-69.536-53.472-70.464-24.64 0.832-48.736 25.12-52.608 55.232l-35.008-4.512zM366.272 485.568c-3.872-30.080-27.968-54.4-53.696-55.232-31.36 0.928-52.832 26.304-52.384 70.464l-0.192-2.304 17.664 123.584-34.944 4.992-17.664-123.584-0.192-2.304c-0.64-62.464 35.040-104.608 87.776-106.112 44.928 1.44 82.656 39.456 88.64 86.016l-35.008 4.512zM275.136 632.832c2.176 3.488 10.24 16.96 12.16 19.904 12.672 19.712 25.216 24.768 78.816 24.768v35.296c-64.48 0-88.384-9.6-108.544-40.992-2.272-3.52-10.464-17.248-12.384-20.256l29.92-18.72zM366.112 712.832h353.088v-35.296h-353.088v35.296z" />
<glyph unicode="&#xe934;" glyph-name="order-confirmdone" horiz-adv-x="1056" d="M512 942.944c-273.056 0-494.944-221.856-494.944-494.944s221.856-494.944 494.944-494.944c273.056 0 494.944 221.856 494.944 494.944s-221.856 494.944-494.944 494.944zM750.944 243.2c0-22.176-8.544-42.656-23.904-56.32-10.24-8.544-23.904-11.936-35.84-11.936-3.424 0-6.816 0-10.24 0h-337.92c-15.36-3.424-30.72 1.696-44.384 11.936-15.36 11.936-25.6 34.144-25.6 56.32v119.456c0 10.24 6.816 17.056 17.056 17.056s17.056-6.816 17.056-17.056v-119.456c0-11.936 5.12-23.904 13.664-30.72 5.12-3.424 11.936-5.12 17.056-5.12 1.696 0 1.696 0 3.424 0h341.344c1.696 0 1.696 0 3.424 0 8.544-1.696 15.36 1.696 18.784 5.12 6.816 6.816 11.936 17.056 11.936 30.72v119.456c0 10.24 6.816 17.056 17.056 17.056s17.056-6.816 17.056-17.056v-119.456zM716.8 396.8c-25.6 0-49.504 13.664-64.864 34.144-10.24-18.784-29.024-34.144-71.68-34.144-34.144 0-52.896 15.36-64.864 34.144-10.24-18.784-29.024-34.144-71.68-34.144-37.536 0-56.32 17.056-68.256 39.264-15.36-23.904-40.96-39.264-68.256-39.264-52.896 1.696-87.040 42.656-85.344 102.4 0 0 0 1.696 0 1.696l17.056 119.456c0 1.696 1.696 5.12 1.696 6.816-3.424 5.12-3.424 11.936 0 17.056 1.696 3.424 3.424 6.816 5.12 10.24 20.48 34.144 32.416 49.504 110.944 49.504h341.344v-34.144h-339.616c-61.44 0-66.56-8.544-81.92-32.416-1.696-3.424-3.424-6.816-5.12-10.24 1.696-3.424 3.424-6.816 1.696-10.24l-17.056-117.76c0-40.96 20.48-66.56 51.2-66.56 23.904 0 47.776 25.6 51.2 52.896 0 0 0 1.696 0 1.696 0 1.696 0 1.696 1.696 3.424 0 1.696 1.696 1.696 1.696 3.424 0 0 1.696 1.696 1.696 1.696 1.696 1.696 1.696 1.696 3.424 1.696 0 0 1.696 0 1.696 1.696 0 0 0 0 0 0 1.696 0 1.696 0 3.424 0s1.696 0 3.424 0c0 0 0 0 0 0 1.696 0 1.696 0 1.696 0 1.696 0 1.696 0 3.424-1.696 1.696 0 1.696-1.696 3.424-1.696 0 0 1.696-1.696 1.696-1.696 0-1.696 1.696-1.696 1.696-3.424 0 0 1.696-1.696 1.696-1.696l1.696-6.816c11.936-35.84 18.784-51.2 49.504-51.2 40.96 0 42.656 11.936 49.504 42.656 0 3.424 1.696 8.544 3.424 11.936 0 0 0 1.696 0 1.696 0 1.696 0 1.696 1.696 3.424 0 1.696 1.696 1.696 1.696 3.424 0 0 1.696 1.696 1.696 1.696 1.696 0 1.696 1.696 3.424 1.696 0 0 1.696 0 1.696 1.696 0 0 1.696 0 1.696 0 1.696 0 1.696 0 3.424 0s1.696 0 3.424 0c0 0 1.696 0 1.696 0s1.696 0 1.696 0 1.696 0 3.424-1.696c1.696 0 1.696-1.696 3.424-1.696 0 0 1.696-1.696 1.696-1.696 0-1.696 1.696-1.696 1.696-3.424 0 0 0-1.696 1.696-1.696l1.696-6.816c11.936-35.84 18.784-51.2 49.504-51.2 40.96 0 42.656 11.936 49.504 42.656 0 3.424 1.696 8.544 3.424 11.936 0 0 0 0 0 0 0 1.696 1.696 1.696 1.696 3.424 0 0 0 1.696 1.696 1.696 0 1.696 1.696 1.696 3.424 3.424 0 0 1.696 1.696 1.696 1.696 1.696 0 1.696 0 3.424 1.696 1.696 0 1.696 1.696 3.424 1.696 0 0 0 0 0 0 1.696 0 1.696 0 3.424 0s1.696 0 3.424 0c0 0 0 0 0 0 1.696 0 3.424-1.696 3.424-1.696s1.696 0 1.696-1.696c1.696 0 1.696-1.696 3.424-3.424 0 0 1.696-1.696 1.696-1.696 0-1.696 0-1.696 1.696-3.424 0-1.696 1.696-1.696 1.696-3.424 0 0 0 0 0 0 3.424-29.024 27.296-52.896 51.2-52.896 30.72 1.696 51.2 27.296 51.2 66.56l-17.056 117.76c-1.696 8.544 5.12 18.784 13.664 18.784 8.544 1.696 18.784-5.12 18.784-13.664l17.056-119.456c0 0 0-1.696 0-1.696 0-59.744-34.144-100.704-85.344-102.4z" />
<glyph unicode="&#xe935;" glyph-name="order-distribution" horiz-adv-x="1056" d="M524.992-64c282.784 0 512 229.216 512 512s-229.216 512-512 512c-282.784 0-512-229.216-512-512s229.216-512 512-512v0zM524.992-28.704c-263.264 0-476.704 213.408-476.704 476.704s213.408 476.704 476.704 476.704c263.264 0 476.704-213.408 476.704-476.704s-213.408-476.704-476.704-476.704v0zM762.144 248.992c27.616 14.464 42.464 40.224 45.28 73.984l0.032 2.496-17.664 300.128c0.064 37.504-27.424 51.936-70.592 51.936h-105.92c-29.184 0-52.96-23.744-52.96-52.96 0-29.376 23.776-52.96 53.12-52.96h70.464l-17.664 17.664v-77.696l1.248 6.496-52.96-134.176 16.128 11.168c-2.432-0.032-6.944-0.096-13.152-0.192-10.304-0.16-21.536-0.288-33.248-0.448-17.728-0.224-35.008-0.384-51.264-0.48-51.584-0.352-87.68-0.032-93.472 0.896l-2.304 0.384-2.336-0.256c4.992 0.512 7.584-1.504 7.776-1.92-1.632 3.072-3.36 8.832-4.96 16.768-2.944 14.656-5.024 33.856-7.296 64.288-0.256 3.232-0.48 6.592-0.8 10.912-0.384 5.44-0.384 5.44-0.8 10.816-3.296 44.992-5.344 62.592-10.496 74.528-16.544 38.336-40.96 54.24-87.52 54.24h-52.96c-31.616-0.8-50.72-20.864-52.928-51.712l-17.632-229.408c0.608-52.448 15.776-83.424 45.184-97.664l15.392 31.776c-15.776 7.648-24.8 26.048-25.312 64.736l17.6 227.936c0.96 13.472 5.92 18.72 18.144 19.008h52.512c32.544 0 44.16-7.552 55.104-32.896 2.752-6.4 4.896-24.544 7.712-63.104 0.384-5.376 0.384-5.376 0.8-10.816 0.32-4.32 0.576-7.712 0.8-11.008 2.4-31.872 4.576-52.096 7.904-68.608 5.824-29.024 14.336-45.184 35.424-43.008l-4.64 0.128c8.864-1.44 43.008-1.728 99.36-1.344 16.32 0.096 33.664 0.288 51.424 0.48 11.744 0.128 22.976 0.288 33.344 0.448 6.208 0.096 10.72 0.16 13.184 0.192l11.808 0.192 58.528 148.288v98.688h-88.128c-9.92 0-17.792 7.84-17.792 17.664 0 9.696 7.968 17.664 17.664 17.664h105.92c26.208 0 35.328-4.768 35.296-17.632l17.696-301.184 0.032 2.496c-1.856-22.432-10.368-37.184-26.464-45.6l16.384-31.296zM472.032 271.456h70.624v-35.296h-70.624v35.296zM357.28 130.208c63.392 0 114.752 51.392 114.752 114.752s-51.392 114.752-114.752 114.752c-63.392 0-114.752-51.392-114.752-114.752s51.392-114.752 114.752-114.752v0zM357.28 165.504c-43.872 0-79.456 35.584-79.456 79.456s35.584 79.456 79.456 79.456c43.872 0 79.456-35.584 79.456-79.456s-35.584-79.456-79.456-79.456v0zM657.408 130.208c63.392 0 114.752 51.392 114.752 114.752s-51.392 114.752-114.752 114.752c-63.392 0-114.752-51.392-114.752-114.752s51.392-114.752 114.752-114.752v0zM657.408 165.504c-43.872 0-79.456 35.584-79.456 79.456s35.584 79.456 79.456 79.456c43.872 0 79.456-35.584 79.456-79.456s-35.584-79.456-79.456-79.456v0z" />
<glyph unicode="&#xe936;" glyph-name="order-distributiondone" horiz-adv-x="1056" d="M349.856 174.944c42.656 0 76.8 34.144 76.8 76.8s-34.144 76.8-76.8 76.8-76.8-34.144-76.8-76.8 34.144-76.8 76.8-76.8zM640 328.544c-42.656 0-76.8-34.144-76.8-76.8s34.144-76.8 76.8-76.8 76.8 34.144 76.8 76.8-34.144 76.8-76.8 76.8zM640 362.656c44.384 0 81.92-25.6 100.704-63.136 5.12 8.544 10.24 17.056 10.24 30.72l-17.056 288.416c0 10.24-3.424 11.936-6.816 13.664-5.12 1.696-15.36 3.424-27.296 3.424h-102.4c-10.24 0-17.056-6.816-17.056-17.056s6.816-17.056 17.056-17.056h68.256c10.24 0 17.056-6.816 17.056-17.056v-75.104c0-1.696 0-5.12-1.696-6.816l-51.2-129.696c-1.696-5.12-8.544-10.24-15.36-10.24-27.296 0-163.84-1.696-189.44 0-5.12 0-10.24 1.696-15.36 5.12-15.36 13.664-20.48 47.776-25.6 117.76-1.696 25.6-3.424 58.016-8.544 66.56-6.816 23.904-17.056 32.416-51.2 32.416h-51.2c-10.24 0-15.36-3.424-17.056-18.784l-17.056-221.856c0-23.904 5.12-37.536 10.24-47.776 17.056 39.264 56.32 64.864 100.704 64.864 61.44 0 110.944-49.504 110.944-110.944v27.296h68.256v-25.6c0 61.44 49.504 110.944 110.944 110.944zM512 942.944c-273.056 0-494.944-221.856-494.944-494.944s221.856-494.944 494.944-494.944c273.056 0 494.944 221.856 494.944 494.944s-221.856 494.944-494.944 494.944zM785.056 326.816c-1.696-29.024-13.664-51.2-34.144-66.56 0-3.424 0-6.816 0-10.24 0-61.44-49.504-110.944-110.944-110.944s-110.944 51.2-110.944 112.64v-8.544h-68.256v8.544c0-61.44-49.504-110.944-110.944-110.944s-110.944 49.504-110.944 110.944c0 1.696 0 3.424 0 6.816-22.176 15.36-34.144 44.384-34.144 87.040l17.056 223.584c1.696 30.72 20.48 49.504 51.2 49.504h51.2c44.384 0 68.256-15.36 85.344-52.896 5.12-13.664 8.544-37.536 10.24-78.496 1.696-27.296 5.12-78.496 11.936-92.16 17.056-1.696 97.28 0 170.656 0l46.080 116.064v56.32h-51.2c-29.024 0-51.2 22.176-51.2 51.2s22.176 51.2 51.2 51.2h102.4c18.784 0 32.416-3.424 44.384-8.544s25.6-18.784 23.904-42.656l17.056-288.416c0-1.696 0-1.696 0-3.424z" />
<glyph unicode="&#xe937;" glyph-name="order-favor" d="M512 829.152l17.056-22.752c28.448-39.808 51.2-79.648 79.648-119.456 28.448-45.504 73.952-79.648 125.152-96.704 56.896-17.056 113.792-34.144 170.656-51.2l-11.392-17.056c-39.808-45.504-73.952-85.344-102.4-130.848-34.144-45.504-51.2-91.008-45.504-147.904 0-34.144 0-68.256 5.696-102.4 0-28.448 0-56.896 0-85.344-28.448 11.392-56.896 22.752-85.344 34.144-22.752 11.392-45.504 17.056-68.256 28.448-28.448 11.392-51.2 17.056-79.648 17.056s-51.2-5.696-79.648-17.056c-39.808-17.056-79.648-34.144-119.456-45.504l-34.144-11.392v170.656c0 0 0 0 0 5.696 0 56.896-17.056 108.096-51.2 159.296-34.144 39.808-62.592 79.648-91.008 119.456l-17.056 22.752c56.896 17.056 113.792 39.808 170.656 56.896 51.2 17.056 91.008 45.504 119.456 91.008 34.144 45.504 62.592 91.008 96.704 142.208v0zM512 960c-28.448 0-56.896-17.056-79.648-45.504-39.808-56.896-73.952-108.096-113.792-164.992-11.392-22.752-34.144-39.808-56.896-51.2-62.592-17.056-130.848-39.808-193.408-62.592-68.256-22.752-91.008-96.704-45.504-153.6 39.808-51.2 79.648-102.4 119.456-153.6 17.056-28.448 28.448-51.2 22.752-85.344 0-34.144 0-68.256 0-102.4 0 0 0 0 0 0 0-34.144-5.696-68.256-5.696-108.096 0-62.592 39.808-102.4 91.008-102.4 11.392 0 22.752 0 39.808 5.696 62.592 22.752 125.152 45.504 187.744 73.952 11.392 5.696 22.752 5.696 34.144 5.696s22.752 0 39.808-5.696c62.592-22.752 125.152-45.504 182.048-73.952 11.392-5.696 22.752-5.696 34.144-5.696 51.2 0 96.704 39.808 91.008 102.4 0 68.256-5.696 136.544-5.696 210.496 0 28.448 5.696 51.2 22.752 73.952 39.808 51.2 79.648 108.096 119.456 159.296 45.504 56.896 22.752 130.848-45.504 153.6-62.592 22.752-125.152 39.808-193.408 62.592-28.448 5.696-45.504 22.752-62.592 45.504-34.144 56.896-73.952 108.096-108.096 164.992-17.056 39.808-45.504 56.896-73.952 56.896v0zM164.992 146.496c0 0 0 0 0 0s0 0 0 0 0 0 0 0v0z" />
<glyph unicode="&#xe938;" glyph-name="order-pay" horiz-adv-x="1056" d="M516.64-64c282.784 0 512 229.216 512 512s-229.216 512-512 512c-282.784 0-512-229.216-512-512s229.216-512 512-512v0zM516.64-28.704c-263.264 0-476.704 213.408-476.704 476.704s213.408 476.704 476.704 476.704c263.264 0 476.704-213.408 476.704-476.704s-213.408-476.704-476.704-476.704v0zM216.512 412.704v52.96l-9.76-15.776 23.232 11.616c39.2 19.584 39.2 59.36 0 78.976l-23.232 11.616 9.76-15.776v52.928c0 29.312 23.648 53.024 52.8 53.024h494.688c29.12 0 52.8-23.776 52.8-53.024v-44.096l9.76 15.776-40.896-20.448c-39.2-19.616-39.2-59.36 0-78.976l40.896-20.448-9.76 15.776v-35.296l9.76 15.776-40.896-20.448c-39.2-19.616-39.2-59.36 0-78.976l40.896-20.448-9.76 15.776v-44.096c0-29.312-23.648-53.024-52.8-53.024h-494.688c-29.088 0-52.8 23.776-52.8 53.024v52.928l-9.76-15.776 23.232 11.616c39.2 19.584 39.2 59.36 0 78.976l-23.232 11.616 9.76-15.776zM181.216 412.704v-10.912l32.992-16.48c13.184-6.592 13.184-9.216 0-15.808l-32.992-16.48v-63.84c0-48.704 39.456-88.32 88.096-88.32h494.688c48.672 0 88.096 39.552 88.096 88.32v55.008l-50.656 25.312c-13.184 6.592-13.184 9.216 0 15.808l50.656 25.312v57.12l-50.656 25.312c-13.184 6.592-13.184 9.216 0 15.808l50.656 25.312v55.008c0 48.704-39.456 88.32-88.096 88.32h-494.688c-48.672 0-88.096-39.552-88.096-88.32v-63.84l32.992-16.48c13.184-6.592 13.184-9.216 0-15.808l-32.992-16.48v-63.872zM415.904 559.104l88.288-88.288 24.96 24.96-88.288 88.288-24.96-24.96zM592.448 584.064l-88.288-88.288 24.96-24.96 88.288 88.288-24.96 24.96zM516.64 500.96c9.76 0 17.664-47.424 17.664-105.92s-7.904-105.92-17.664-105.92c-9.76 0-17.664 47.424-17.664 105.92s7.904 105.92 17.664 105.92zM516.64 465.664c58.496 0 105.92-7.904 105.92-17.664s-47.424-17.664-105.92-17.664c-58.496 0-105.92 7.904-105.92 17.664s47.424 17.664 105.92 17.664zM516.64 395.040c58.496 0 105.92-7.904 105.92-17.664s-47.424-17.664-105.92-17.664c-58.496 0-105.92 7.904-105.92 17.664s47.424 17.664 105.92 17.664z" />
<glyph unicode="&#xe939;" glyph-name="order-paydone" horiz-adv-x="1056" d="M750.944 635.744h-477.856c-27.296 0-51.2-22.176-51.2-51.2v-40.96l13.664-6.816c23.904-11.936 29.024-29.024 29.024-37.536s-3.424-25.6-29.024-37.536l-13.664-6.816v-30.72l13.664-6.816c23.904-11.936 29.024-29.024 29.024-37.536s-3.424-25.6-29.024-37.536l-13.664-6.816v-40.96c0-29.024 22.176-51.2 51.2-51.2h477.856c27.296 0 51.2 22.176 51.2 51.2v32.416l-30.72 15.36c-23.904 11.936-29.024 29.024-29.024 37.536s3.424 25.6 29.024 37.536l30.72 15.36v13.664l-30.72 15.36c-23.904 11.936-29.024 29.024-29.024 37.536s3.424 25.6 29.024 37.536l30.72 15.36v32.416c0 29.024-22.176 51.2-51.2 51.2zM523.936 465.056c51.2-1.696 90.464-8.544 90.464-17.056s-37.536-15.36-87.040-17.056c0-10.24 1.696-22.176 1.696-34.144 0 0 0 0 0 0 47.776-1.696 85.344-8.544 85.344-17.056s-37.536-15.36-87.040-17.056c-1.696-39.264-8.544-68.256-15.36-68.256s-13.664 29.024-15.36 68.256c-49.504 1.696-87.040 8.544-87.040 17.056s37.536 15.36 85.344 17.056c0 0 0 0 0 0 0 11.936 0 23.904 1.696 34.144-49.504 1.696-87.040 8.544-87.040 17.056s39.264 15.36 90.464 17.056c0 1.696 0 3.424 0 5.12 0 0 0 0 0 0l-85.344 85.344c-6.816 6.816-6.816 17.056 0 23.904s17.056 6.816 23.904 0l73.376-73.376 73.376 73.376c6.816 6.816 17.056 6.816 23.904 0s6.816-17.056 0-23.904l-85.344-85.344c0 0 0 0 0 0 0-1.696 0-3.424 0-5.12zM512 942.944c-273.056 0-494.944-221.856-494.944-494.944s221.856-494.944 494.944-494.944c273.056 0 494.944 221.856 494.944 494.944s-221.856 494.944-494.944 494.944zM836.256 531.616l-49.504-23.904c-6.816-3.424-10.24-6.816-10.24-8.544 0 0 1.696-3.424 10.24-6.816l49.504-23.904v-54.624l-49.504-23.904c-6.816-3.424-10.24-6.816-10.24-8.544 0 0 1.696-3.424 10.24-6.816l49.504-23.904v-56.32c0-47.776-37.536-85.344-85.344-85.344h-477.856c-47.776 0-85.344 37.536-85.344 85.344v61.44l32.416 15.36c6.816 3.424 10.24 6.816 10.24 8.544 0 0-1.696 3.424-10.24 6.816l-32.416 17.056v71.68l32.416 15.36c6.816 3.424 10.24 6.816 10.24 8.544 0 0-1.696 3.424-10.24 6.816l-32.416 17.056v61.44c0 47.776 37.536 85.344 85.344 85.344h477.856c47.776 0 85.344-37.536 85.344-85.344v-52.896z" />
<glyph unicode="&#xe93a;" glyph-name="order-submit" d="M512-64c282.784 0 512 229.216 512 512s-229.216 512-512 512c-282.784 0-512-229.216-512-512s229.216-512 512-512v0zM512-28.704c-263.264 0-476.704 213.408-476.704 476.704s213.408 476.704 476.704 476.704c263.264 0 476.704-213.408 476.704-476.704s-213.408-476.704-476.704-476.704v0zM759.36 553.92v-298.56c0-39.968-35.456-72.704-79.584-72.192h-317.344c-44.32-0.512-79.808 32.192-79.968 72.16v384.128c0.16 39.808 35.648 72.832 80.224 73.376h237.568v35.296h-237.792c-63.488-0.736-115.072-48.768-115.328-108.608v-384.256c0.256-60.192 52.256-108.16 115.488-107.392h316.928c63.072-0.736 115.104 47.328 115.104 107.52v298.56h-35.296zM388.416 342.080h194.208v-35.296h-194.208v35.296zM617.92 342.080h35.296v-35.296h-35.296v35.296zM388.416 448h264.832v-35.296h-264.832v35.296zM388.416 553.92h264.832v-35.296h-264.832v35.296zM617.92 694.368v-69.632c0-29.344 23.68-53.152 52.928-53.152h70.688c35.328 0 47.776 30.144 22.816 54.976l-91.392 90.976c-25.056 24.928-55.040 12.032-55.040-23.168v0z" />
</font>
</defs>
</svg>
